<?xml version="1.0" encoding="UTF-8"?>
<svg width="205px" height="177px" viewBox="0 0 205 177" version="1.1" xmlns="http://www.w3.org/2000/svg" xmlns:xlink="http://www.w3.org/1999/xlink">
    <!-- Generator: Sketch 52.2 (67145) - http://www.bohemiancoding.com/sketch -->
    <title>Untitled 2</title>
    <desc>Created with Sketch.</desc>
    <defs>
        <polygon id="path-1" points="51.5178 0.189 153.4864 0.189 204.4717 88.496 153.4864 176.8049 51.5178 176.8049 0.5354 88.496"></polygon>
    </defs>
    <g id="Page-1" stroke="none" stroke-width="1" fill="none" fill-rule="evenodd">
        <mask id="mask-2" fill="white">
            <use xlink:href="#path-1"></use>
        </mask>
        <use id="Clip-198" fill="#D8D8D8" xlink:href="#path-1"></use>
        <g id="Group" mask="url(#mask-2)">
            <g transform="translate(-15.000000, -8.000000)">
                <polygon id="Stroke-197" stroke="#9B3B1D" stroke-width="70.866" fill="none" points="138.171517 110.27529 96.8326286 110.27529 96.8326286 82.7166795 138.171517 82.7166795"></polygon>
                <polygon id="Stroke-200" stroke="#862C11" stroke-width="42.52" fill="none" points="138.171517 110.27529 96.8326286 110.27529 96.8326286 82.7166795 138.171517 82.7166795"></polygon>
                <polygon id="Fill-204" stroke="none" fill="#5F0A00" fill-rule="evenodd" points="96.8326 110.2753 138.17149 110.2753 138.17149 82.71669 96.8326 82.71669"></polygon>
                <polygon id="Stroke-206" stroke="#742005" stroke-width="14.173" fill="none" points="138.171517 110.27529 96.8326286 110.27529 96.8326286 82.7166795 138.171517 82.7166795"></polygon>
                <polygon id="Stroke-208" stroke="#9B3B1D" stroke-width="70.866" fill="none" points="41.7144354 110.27529 0.375547478 110.27529 0.375547478 82.7166795 41.7144354 82.7166795"></polygon>
                <polygon id="Stroke-211" stroke="#862C11" stroke-width="42.52" fill="none" points="41.7144354 110.27529 0.375547478 110.27529 0.375547478 82.7166795 41.7144354 82.7166795"></polygon>
                <polygon id="Fill-215" stroke="none" fill="#5F0A00" fill-rule="evenodd" points="23.49 82.7173 15.5353 96.4956 23.49 110.2759 41.7143 110.2759 41.7143 82.7173"></polygon>
                <polygon id="Stroke-217" stroke="#742005" stroke-width="14.173" fill="none" points="41.7144354 110.27529 0.375547478 110.27529 0.375547478 82.7166795 41.7144354 82.7166795"></polygon>
                <polygon id="Stroke-220" stroke="#9B3B1D" stroke-width="70.866" fill="none" points="234.628598 110.27529 193.28971 110.27529 193.28971 82.7166795 234.628598 82.7166795"></polygon>
                <polygon id="Stroke-223" stroke="#862C11" stroke-width="42.52" fill="none" points="234.628598 110.27529 193.28971 110.27529 193.28971 82.7166795 234.628598 82.7166795"></polygon>
                <polygon id="Fill-227" stroke="none" fill="#5F0A00" fill-rule="evenodd" points="193.2905 82.7173 193.2905 110.2759 211.5158 110.2759 219.4715 96.4956 211.5158 82.7173"></polygon>
                <polygon id="Stroke-229" stroke="#742005" stroke-width="14.173" fill="none" points="234.628598 110.27529 193.28971 110.27529 193.28971 82.7166795 234.628598 82.7166795"></polygon>
                <polygon id="Stroke-232" stroke="#9B3B1D" stroke-width="70.866" fill="none" points="89.9444343 27.5984863 48.6055464 27.5984863 48.6055464 0.0398758302 89.9444343 0.0398758302"></polygon>
                <polygon id="Stroke-235" stroke="#862C11" stroke-width="42.52" fill="none" points="89.9444343 27.5984863 48.6055464 27.5984863 48.6055464 0.0398758302 89.9444343 0.0398758302"></polygon>
                <polygon id="Fill-239" stroke="none" fill="#5F0A00" fill-rule="evenodd" points="66.5179 8.1891 55.312 27.5986 89.9445 27.5986 89.9445 8.1891"></polygon>
                <polygon id="Stroke-241" stroke="#742005" stroke-width="14.173" fill="none" points="89.9444343 27.5984863 48.6055464 27.5984863 48.6055464 0.0398758302 89.9444343 0.0398758302"></polygon>
                <polygon id="Stroke-244" stroke="#9B3B1D" stroke-width="70.866" fill="none" points="186.401515 27.5984863 145.062628 27.5984863 145.062628 0.0398758302 186.401515 0.0398758302"></polygon>
                <polygon id="Stroke-247" stroke="#862C11" stroke-width="42.52" fill="none" points="186.401515 27.5984863 145.062628 27.5984863 145.062628 0.0398758302 186.401515 0.0398758302"></polygon>
                <polygon id="Fill-251" stroke="none" fill="#5F0A00" fill-rule="evenodd" points="145.0623 8.1891 145.0623 27.5986 179.6928 27.5986 168.487 8.1891"></polygon>
                <polygon id="Stroke-253" stroke="#742005" stroke-width="14.173" fill="none" points="186.401515 27.5984863 145.062628 27.5984863 145.062628 0.0398758302 186.401515 0.0398758302"></polygon>
                <polygon id="Stroke-256" stroke="#9B3B1D" stroke-width="70.866" fill="none" points="89.9444343 192.953066 48.6055464 192.953066 48.6055464 165.394455 89.9444343 165.394455"></polygon>
                <polygon id="Stroke-259" stroke="#862C11" stroke-width="42.52" fill="none" points="89.9444343 192.953066 48.6055464 192.953066 48.6055464 165.394455 89.9444343 165.394455"></polygon>
                <polygon id="Fill-263" stroke="none" fill="#5F0A00" fill-rule="evenodd" points="55.3119 165.3942 66.5178 184.8047 89.9444 184.8047 89.9444 165.3942"></polygon>
                <polygon id="Stroke-265" stroke="#742005" stroke-width="14.173" fill="none" points="89.9444343 192.953066 48.6055464 192.953066 48.6055464 165.394455 89.9444343 165.394455"></polygon>
                <polygon id="Stroke-268" stroke="#9B3B1D" stroke-width="70.866" fill="none" points="186.401515 192.953066 145.062628 192.953066 145.062628 165.394455 186.401515 165.394455"></polygon>
                <polygon id="Stroke-271" stroke="#862C11" stroke-width="42.52" fill="none" points="186.401515 192.953066 145.062628 192.953066 145.062628 165.394455 186.401515 165.394455"></polygon>
                <polygon id="Fill-275" stroke="none" fill="#5F0A00" fill-rule="evenodd" points="145.0623 165.3942 145.0623 184.8047 168.487 184.8047 179.6928 165.3942"></polygon>
                <polygon id="Stroke-277" stroke="#742005" stroke-width="14.173" fill="none" points="186.401515 192.953066 145.062628 192.953066 145.062628 165.394455 186.401515 165.394455"></polygon>
            </g>
        </g>
    </g>
</svg>