<?xml version="1.0" encoding="UTF-8"?>
<svg width="211px" height="182px" viewBox="0 0 211 182" version="1.1" xmlns="http://www.w3.org/2000/svg" xmlns:xlink="http://www.w3.org/1999/xlink">
    <!-- Generator: Sketch 52.2 (67145) - http://www.bohemiancoding.com/sketch -->
    <title>Untitled 2</title>
    <desc>Created with Sketch.</desc>
    <defs>
        <polygon id="path-1" points="157.805 182 52.922 182 0.48 91.168 52.922 0.34 157.805 0.34 210.242 91.168"></polygon>
    </defs>
    <g id="Page-1" stroke="none" stroke-width="1" fill="none" fill-rule="evenodd">
        <g id="Group-170">
            <mask id="mask-2" fill="white">
                <use xlink:href="#path-1"></use>
            </mask>
            <g id="Clip-157"></g>
            <path d="M-54.848,91.902 L-43.438,51.207 C-15.602,49.141 8.797,40.75 32.492,32.598 C58.727,23.574 83.504,15.051 112.32,15.051 C143.324,15.051 168.762,27.652 193.359,39.836 C213.297,49.711 232.246,59.098 252.723,61.016 C253.211,69.527 251.84,90.918 237.41,139.148 C231.641,158.422 225.355,176.707 220.676,189.738 L-54.848,91.902 Z" id="Fill-156" fill="#F4CABE" mask="url(#mask-2)"></path>
            <path d="M112.32,-6.211 C48.473,-6.211 4.051,30.43 -56.32,30.43 C-57.434,30.43 -58.559,30.418 -59.68,30.391 L-80.68,105.289 L233.32,216.789 C233.32,216.789 302.211,40.109 260.797,40.109 L260.68,40.109 C260.539,40.109 260.398,40.109 260.258,40.109 C218.758,40.109 177.098,-6.211 112.32,-6.211 M112.32,36.309 C138.348,36.309 160.484,47.277 183.926,58.887 C198.773,66.242 213.941,73.758 230.234,78.309 C228.469,90.109 224.414,109.133 215.352,138.621 C212.777,147 210.141,155.105 207.633,162.547 L-29.012,78.516 L-26.824,70.715 C-2.348,67.066 19.492,59.555 39.41,52.703 C64.977,43.906 87.059,36.309 112.32,36.309" id="Fill-158" fill="#D0896D" mask="url(#mask-2)"></path>
            <path d="M112.32,-6.211 C48.473,-6.211 4.051,30.43 -56.32,30.43 C-57.434,30.43 -58.559,30.418 -59.68,30.391 L-80.68,105.289 L233.32,216.789 C233.32,216.789 302.211,40.109 260.797,40.109 L260.68,40.109 C260.539,40.109 260.398,40.109 260.258,40.109 C218.758,40.109 177.098,-6.211 112.32,-6.211 M112.32,22.137 C141.664,22.137 166.348,34.363 190.215,46.188 C207.953,54.973 226.172,63.996 245.633,67.223 C245.145,77.695 242.145,99.039 229.918,139.457 C225.316,154.652 220.445,169.113 216.371,180.691 L-46.234,87.441 L-37.938,57.844 C-11.324,55.164 12.055,47.125 34.801,39.301 C60.457,30.473 84.688,22.137 112.32,22.137" id="Fill-159" fill="#8C483F" mask="url(#mask-2)"></path>
            <path d="M112.32,-9.211 C48.473,-9.211 4.051,27.43 -56.32,27.43 C-57.434,27.43 -58.559,27.418 -59.68,27.391 L-80.68,102.289 L233.32,213.789 C233.32,213.789 302.211,37.109 260.797,37.109 L260.68,37.109 C260.539,37.109 260.398,37.109 260.258,37.109 C218.758,37.109 177.098,-9.211 112.32,-9.211 M112.32,7.965 C144.98,7.965 171.176,20.938 196.508,33.488 C217.633,43.953 237.617,53.852 258.855,54.27 C260.328,58.973 262.902,77.555 245.273,137.551 C238.133,161.863 229.977,185.012 224.938,198.773 L-63.457,96.367 L-48.898,44.434 C-19.887,43.125 5.535,34.379 30.188,25.898 C56.996,16.676 82.32,7.965 112.32,7.965" id="Fill-160" fill="#BB6141" mask="url(#mask-2)"></path>
            <path d="M-54.918,136.605 L-42.695,81.555 C-15.203,75.715 59.664,62.566 103.852,62.566 C108.461,62.566 112.656,62.707 116.324,62.988 C137.762,64.625 147.938,77.75 157.777,90.445 C165.227,100.051 172.93,109.984 185.188,112.539 C189.633,113.465 194.43,113.934 199.438,113.934 C207.973,113.934 216.352,112.562 223.527,110.832 L220.293,173.32 L2.359,206.379 L-54.918,136.605 Z" id="Fill-161" fill="#EAB4A2" mask="url(#mask-2)"></path>
            <path d="M103.852,48.395 C50.461,48.395 -40.605,66.082 -54.594,69.746 L-70.25,140.27 L-3.48,221.602 L233.852,185.602 L238.75,90.934 C238.75,90.934 219.324,99.762 199.434,99.762 C195.621,99.762 191.789,99.438 188.074,98.664 C169.266,94.746 162.082,52.27 117.402,48.855 C113.254,48.539 108.711,48.395 103.852,48.395 M103.859,76.738 C108.102,76.738 111.934,76.867 115.242,77.121 C129.707,78.223 136.254,85.812 146.574,99.129 C154.754,109.672 164.926,122.797 182.297,126.414 C187.691,127.539 193.461,128.105 199.434,128.105 C202.484,128.105 205.508,127.957 208.465,127.695 L206.734,161.043 L8.203,191.156 L-39.586,132.945 L-30.848,93.582 C0.664,87.359 64.664,76.742 103.855,76.738 L103.859,76.738" id="Fill-162" fill="#D1866D" mask="url(#mask-2)"></path>
            <path d="M103.852,48.395 C50.461,48.395 -40.605,66.082 -54.594,69.746 L-70.25,140.27 L-3.48,221.602 L233.852,185.602 L238.75,90.934 C238.75,90.934 219.324,99.762 199.434,99.762 C195.621,99.762 191.789,99.438 188.074,98.664 C169.266,94.746 162.082,52.27 117.402,48.855 C113.254,48.539 108.711,48.395 103.852,48.395 M103.855,62.566 C108.465,62.566 112.656,62.707 116.324,62.988 C137.762,64.625 147.938,77.75 157.777,90.445 C165.227,100.051 172.93,109.984 185.184,112.539 C189.633,113.465 194.43,113.934 199.434,113.934 C207.973,113.934 216.352,112.566 223.527,110.832 L220.293,173.32 L2.359,206.379 L-54.918,136.605 L-42.695,81.555 C-15.203,75.715 59.66,62.566 103.855,62.566" id="Fill-163" fill="#AB5439" mask="url(#mask-2)"></path>
            <path d="M92.66,200.574 L55.375,115.789 C77.852,109.41 116.324,99.77 148.672,99.77 C150.852,99.77 152.992,99.816 155.035,99.906 C177.402,100.891 213.57,114.809 239.98,124.969 C254.266,130.465 266.098,135.016 274.898,137.414 C275.312,141.98 275.184,152.855 270.332,176.18 C268.406,185.453 266.242,194.195 264.578,200.574 L92.66,200.574 Z" id="Fill-164" fill="#AB5439" mask="url(#mask-2)"></path>
            <path d="M148.672,85.598 C104.371,85.598 49.738,102.609 35.914,106.746 L83.406,214.746 L275.406,214.746 C275.406,214.746 300.625,128.043 282.902,124.746 C261.406,120.746 194.371,87.453 155.66,85.746 C153.363,85.645 151.035,85.598 148.672,85.598 M148.68,113.945 C150.648,113.945 152.574,113.984 154.41,114.066 C174.469,114.949 209.391,128.387 234.891,138.195 C244.527,141.902 253.086,145.195 260.547,147.758 C260.027,153.625 258.762,162.641 255.879,176.027 C255.102,179.637 254.301,183.137 253.52,186.398 L101.91,186.398 L75.012,125.238 C104.59,117.734 129.285,113.945 148.676,113.945 L148.68,113.945" id="Fill-165" fill="#BF6447" mask="url(#mask-2)"></path>
            <path d="M148.672,85.598 C104.371,85.598 49.738,102.609 35.914,106.746 L83.406,214.746 L275.406,214.746 C275.406,214.746 300.625,128.043 282.902,124.746 C261.406,120.746 194.371,87.453 155.66,85.746 C153.363,85.645 151.035,85.598 148.672,85.598 M148.68,99.77 C150.855,99.77 152.992,99.816 155.035,99.906 C177.402,100.891 213.566,114.809 239.98,124.969 C254.266,130.465 266.098,135.016 274.902,137.414 C275.312,141.969 275.188,152.805 270.367,176.016 C268.438,185.332 266.258,194.148 264.578,200.574 L92.66,200.574 L55.375,115.789 C77.852,109.41 116.324,99.773 148.676,99.77 L148.68,99.77" id="Fill-166" fill="#8C483F" mask="url(#mask-2)"></path>
            <path d="M-8.43,115.09 C3.938,113.34 15.203,112.453 25.164,112.453 C43.441,112.453 57.395,115.289 67.824,121.117 C70.262,122.48 72.953,124.203 75.805,126.027 C89.102,134.527 107.305,146.172 136.738,146.172 L198.531,146.172 L183.168,195.934 L-19.266,203.004 L-8.43,115.09 Z" id="Fill-167" fill="#BF6447" mask="url(#mask-2)"></path>
            <path d="M25.164,98.281 C12.215,98.281 -3.066,99.637 -21.188,102.746 L-35.363,217.746 L193.738,209.746 L217.738,131.996 L136.738,131.996 C105.363,131.996 89.188,116.824 74.738,108.746 C63.539,102.484 47.957,98.281 25.164,98.281 M25.168,126.629 C40.738,126.629 52.762,128.938 60.906,133.488 C62.977,134.648 65.5,136.258 68.172,137.969 C82.105,146.879 103.16,160.344 136.738,160.344 L179.32,160.344 L172.602,182.121 L-3.168,188.258 L4.285,127.801 C11.809,127.02 18.789,126.629 25.164,126.629 L25.168,126.629" id="Fill-168" fill="#D1866D" mask="url(#mask-2)"></path>
            <path d="M25.164,98.281 C12.215,98.281 -3.066,99.637 -21.188,102.746 L-35.363,217.746 L193.738,209.746 L217.738,131.996 L136.738,131.996 C105.363,131.996 89.188,116.824 74.738,108.746 C63.539,102.484 47.957,98.281 25.164,98.281 M25.168,112.453 C43.441,112.453 57.395,115.289 67.824,121.117 C70.262,122.48 72.953,124.203 75.805,126.027 C89.102,134.527 107.305,146.172 136.738,146.172 L198.531,146.172 L183.172,195.934 L-19.266,203.004 L-8.43,115.09 C3.938,113.34 15.199,112.453 25.164,112.453 L25.168,112.453" id="Fill-169" fill="#CC7655" mask="url(#mask-2)"></path>
        </g>
    </g>
</svg>