<?xml version="1.0" encoding="UTF-8"?>
<svg width="211px" height="182px" viewBox="0 0 211 182" version="1.1" xmlns="http://www.w3.org/2000/svg" xmlns:xlink="http://www.w3.org/1999/xlink">
    <!-- Generator: Sketch 52.2 (67145) - http://www.bohemiancoding.com/sketch -->
    <title>Untitled 2</title>
    <desc>Created with Sketch.</desc>
    <defs>
        <polyline id="path-1" points="53.34 0.234 158.223 0.234 210.664 91.062 158.223 181.895 53.34 181.895 0.898 91.062"></polyline>
    </defs>
    <g id="Page-1" stroke="none" stroke-width="1" fill="none" fill-rule="evenodd">
        <g id="Group-347">
            <mask id="mask-2" fill="white">
                <use xlink:href="#path-1"></use>
            </mask>
            <g id="Clip-279"></g>
            <path d="M216.352,103.891 L202.176,103.898 C202.141,84.688 202.531,63.996 206.891,42.879 C211.219,22.078 219.879,-1.16 239.215,-18.477 L248.617,-7.871 C232.598,6.41 224.738,26.547 220.77,45.762 C216.75,65.219 216.305,84.848 216.352,103.891" id="Fill-278" fill="#F9DB6C" mask="url(#mask-2)"></path>
            <path d="M173.832,103.891 L159.656,103.898 C159.621,84.688 160.012,63.996 164.371,42.879 C168.699,22.078 177.355,-1.16 196.691,-18.477 L206.098,-7.871 C190.078,6.41 182.219,26.547 178.25,45.762 C174.227,65.219 173.785,84.848 173.832,103.891" id="Fill-281" fill="#F9DB6C" mask="url(#mask-2)"></path>
            <path d="M188.004,103.883 L173.828,103.891 C173.785,84.852 174.227,65.219 178.25,45.762 C182.219,26.547 190.078,6.41 206.098,-7.871 L215.5,2.73 C202.797,13.984 195.738,31.012 192.125,48.645 C188.441,66.438 187.945,85.012 188.004,103.883" id="Fill-282" fill="#F5A64B" mask="url(#mask-2)"></path>
            <path d="M202.176,103.875 L188.004,103.883 C187.945,85.012 188.441,66.438 192.125,48.645 C195.738,31.012 202.797,13.984 215.5,2.73 L224.902,13.336 C215.52,21.555 209.258,35.477 206.004,51.527 C202.656,67.656 202.105,85.172 202.176,103.875" id="Fill-283" fill="#AE4D2C" mask="url(#mask-2)"></path>
            <path d="M131.309,103.891 L117.137,103.898 C117.102,84.688 117.492,63.996 121.852,42.879 C126.18,22.078 134.836,-1.16 154.172,-18.477 L163.578,-7.871 C147.559,6.41 139.699,26.547 135.73,45.762 C131.707,65.219 131.266,84.848 131.309,103.891" id="Fill-284" fill="#F9DB6C" mask="url(#mask-2)"></path>
            <path d="M145.484,103.883 L131.309,103.891 C131.266,84.852 131.707,65.219 135.73,45.762 C139.699,26.547 147.559,6.41 163.578,-7.871 L172.98,2.73 C160.277,13.984 153.219,31.012 149.605,48.645 C145.922,66.438 145.426,85.012 145.484,103.883" id="Fill-285" fill="#F5A64B" mask="url(#mask-2)"></path>
            <path d="M159.656,103.875 L145.484,103.883 C145.426,85.012 145.922,66.438 149.605,48.645 C153.219,31.012 160.277,13.984 172.98,2.73 L182.383,13.336 C173,21.555 166.738,35.477 163.484,51.527 C160.137,67.656 159.586,85.172 159.656,103.875" id="Fill-286" fill="#AE4D2C" mask="url(#mask-2)"></path>
            <path d="M88.789,103.891 L74.617,103.898 C74.586,84.688 74.973,63.996 79.332,42.879 C83.66,22.078 92.316,-1.16 111.652,-18.477 L121.059,-7.871 C105.039,6.41 97.18,26.547 93.211,45.762 C89.188,65.219 88.746,84.848 88.789,103.891" id="Fill-287" fill="#F9DB6C" mask="url(#mask-2)"></path>
            <path d="M102.965,103.883 L88.789,103.891 C88.746,84.852 89.188,65.219 93.211,45.762 C97.18,26.547 105.039,6.41 121.059,-7.871 L130.461,2.73 C117.758,13.984 110.699,31.012 107.09,48.645 C103.402,66.438 102.906,85.012 102.965,103.883" id="Fill-288" fill="#F5A64B" mask="url(#mask-2)"></path>
            <path d="M119.137,93.875 L104.965,93.883 C104.906,75.012 105.402,56.438 109.086,38.645 C112.699,21.012 119.758,3.984 132.461,-7.27 L141.863,3.336 C132.48,11.555 126.219,25.477 122.965,41.527 C119.617,57.656 119.066,75.172 119.137,93.875" id="Fill-289" fill="#AE4D2C" mask="url(#mask-2)"></path>
            <path d="M46.273,103.891 L32.098,103.898 C32.066,84.688 32.453,63.996 36.812,42.879 C41.141,22.078 49.797,-1.16 69.133,-18.477 L78.539,-7.871 C62.52,6.41 54.66,26.547 50.691,45.762 C46.668,65.219 46.227,84.848 46.273,103.891" id="Fill-290" fill="#F9DB6C" mask="url(#mask-2)"></path>
            <path d="M60.445,103.883 L46.27,103.891 C46.227,84.852 46.668,65.219 50.691,45.762 C54.66,26.547 62.52,6.41 78.539,-7.871 L87.941,2.73 C75.238,13.984 68.18,31.012 64.566,48.645 C60.883,66.438 60.387,85.012 60.445,103.883" id="Fill-291" fill="#F5A64B" mask="url(#mask-2)"></path>
            <path d="M77.617,92.875 L63.445,92.883 C63.387,74.012 63.883,55.438 67.566,37.645 C71.18,20.012 78.238,2.984 90.941,-8.27 L100.344,2.336 C90.961,10.555 84.699,24.477 81.445,40.527 C78.098,56.656 77.547,74.172 77.617,92.875" id="Fill-292" fill="#AE4D2C" mask="url(#mask-2)"></path>
            <path d="M3.754,103.891 L-10.422,103.898 C-10.453,84.688 -10.066,63.996 -5.707,42.879 C-1.379,22.078 7.277,-1.16 26.613,-18.477 L36.02,-7.871 C20,6.41 12.141,26.547 8.172,45.762 C4.148,65.219 3.707,84.848 3.754,103.891" id="Fill-293" fill="#F9DB6C" mask="url(#mask-2)"></path>
            <path d="M17.926,103.883 L3.75,103.891 C3.707,84.852 4.148,65.219 8.172,45.762 C12.141,26.547 20,6.41 36.02,-7.871 L45.422,2.73 C32.719,13.984 25.66,31.012 22.047,48.645 C18.363,66.438 17.867,85.012 17.926,103.883" id="Fill-294" fill="#F5A64B" mask="url(#mask-2)"></path>
            <path d="M32.098,103.875 L17.926,103.883 C17.867,85.012 18.363,66.438 22.047,48.645 C25.66,31.012 32.719,13.984 45.422,2.73 L54.824,13.336 C45.441,21.555 39.18,35.477 35.926,51.527 C32.578,67.656 32.027,85.172 32.098,103.875" id="Fill-295" fill="#AE4D2C" mask="url(#mask-2)"></path>
            <path d="M52.324,154.395 L66.496,154.402 C66.531,135.195 66.141,114.504 61.781,93.383 C57.453,72.586 48.797,49.344 29.461,32.027 L20.055,42.629 C36.074,56.918 43.934,77.051 47.902,96.266 C51.926,115.723 52.367,135.355 52.324,154.395" id="Fill-296" fill="#F9DB6C" mask="url(#mask-2)"></path>
            <path d="M38.148,154.391 L52.324,154.395 C52.367,135.355 51.926,115.723 47.902,96.266 C43.934,77.051 36.074,56.914 20.055,42.629 L10.652,53.234 C23.355,64.488 30.414,81.516 34.027,99.148 C37.711,116.941 38.207,135.516 38.148,154.391" id="Fill-297" fill="#F5A64B" mask="url(#mask-2)"></path>
            <path d="M23.977,154.383 L38.148,154.391 C38.207,135.516 37.711,116.941 34.027,99.148 C30.414,81.516 23.355,64.488 10.652,53.234 L1.25,63.84 C10.633,72.059 16.895,85.98 20.148,102.031 C23.496,118.16 24.047,135.68 23.977,154.383" id="Fill-298" fill="#AE4D2C" mask="url(#mask-2)"></path>
            <path d="M94.844,154.395 L109.016,154.402 C109.051,135.195 108.66,114.504 104.301,93.383 C99.973,72.586 91.316,49.344 71.98,32.027 L62.574,42.629 C78.594,56.918 86.453,77.051 90.422,96.266 C94.445,115.723 94.887,135.355 94.844,154.395" id="Fill-299" fill="#F9DB6C" mask="url(#mask-2)"></path>
            <path d="M80.668,154.391 L94.844,154.395 C94.887,135.355 94.445,115.723 90.422,96.266 C86.453,77.051 78.594,56.914 62.574,42.629 L53.172,53.234 C65.875,64.488 72.934,81.516 76.543,99.148 C80.23,116.941 80.727,135.516 80.668,154.391" id="Fill-300" fill="#F5A64B" mask="url(#mask-2)"></path>
            <path d="M66.496,154.383 L80.668,154.391 C80.727,135.516 80.23,116.941 76.547,99.148 C72.934,81.516 65.875,64.488 53.172,53.234 L43.77,63.84 C53.152,72.059 59.414,85.98 62.668,102.031 C66.016,118.16 66.566,135.68 66.496,154.383" id="Fill-301" fill="#AE4D2C" mask="url(#mask-2)"></path>
            <path d="M137.359,154.395 L151.535,154.402 C151.57,135.195 151.18,114.504 146.82,93.383 C142.492,72.586 133.836,49.344 114.5,32.027 L105.094,42.629 C121.113,56.918 128.973,77.051 132.941,96.266 C136.965,115.723 137.406,135.355 137.359,154.395" id="Fill-302" fill="#F9DB6C" mask="url(#mask-2)"></path>
            <path d="M123.188,154.391 L137.363,154.395 C137.406,135.355 136.965,115.723 132.941,96.266 C128.973,77.051 121.113,56.914 105.094,42.629 L95.691,53.234 C108.395,64.488 115.453,81.516 119.066,99.148 C122.75,116.941 123.246,135.516 123.188,154.391" id="Fill-303" fill="#F5A64B" mask="url(#mask-2)"></path>
            <path d="M109.016,154.383 L123.188,154.391 C123.246,135.516 122.75,116.941 119.066,99.148 C115.453,81.516 108.395,64.488 95.691,53.234 L86.289,63.84 C95.672,72.059 101.934,85.98 105.188,102.031 C108.535,118.16 109.086,135.68 109.016,154.383" id="Fill-304" fill="#AE4D2C" mask="url(#mask-2)"></path>
            <path d="M179.883,154.395 L194.055,154.402 C194.09,135.195 193.699,114.504 189.34,93.383 C185.012,72.586 176.355,49.344 157.02,32.027 L147.613,42.629 C163.633,56.918 171.492,77.051 175.461,96.266 C179.484,115.723 179.926,135.355 179.883,154.395" id="Fill-305" fill="#F9DB6C" mask="url(#mask-2)"></path>
            <path d="M165.707,154.391 L179.883,154.395 C179.926,135.355 179.484,115.723 175.461,96.266 C171.492,77.051 163.633,56.914 147.613,42.629 L138.211,53.234 C150.914,64.488 157.973,81.516 161.586,99.148 C165.27,116.941 165.766,135.516 165.707,154.391" id="Fill-306" fill="#F5A64B" mask="url(#mask-2)"></path>
            <path d="M151.535,154.383 L165.707,154.391 C165.766,135.516 165.27,116.941 161.586,99.148 C157.973,81.516 150.914,64.488 138.211,53.234 L128.809,63.84 C138.191,72.059 144.453,85.98 147.707,102.031 C151.055,118.16 151.605,135.68 151.535,154.383" id="Fill-307" fill="#AE4D2C" mask="url(#mask-2)"></path>
            <path d="M222.402,154.395 L236.574,154.402 C236.609,135.195 236.219,114.504 231.859,93.383 C227.531,72.586 218.875,49.344 199.539,32.027 L190.133,42.629 C206.152,56.918 214.012,77.051 217.98,96.266 C222.004,115.723 222.445,135.355 222.402,154.395" id="Fill-308" fill="#F9DB6C" mask="url(#mask-2)"></path>
            <path d="M208.227,154.391 L222.402,154.395 C222.445,135.355 222.004,115.723 217.98,96.266 C214.012,77.051 206.152,56.914 190.133,42.629 L180.73,53.234 C193.434,64.488 200.492,81.516 204.102,99.148 C207.789,116.941 208.285,135.516 208.227,154.391" id="Fill-309" fill="#F5A64B" mask="url(#mask-2)"></path>
            <path d="M194.055,154.383 L208.227,154.391 C208.285,135.516 207.789,116.941 204.105,99.148 C200.492,81.516 193.434,64.488 180.73,53.234 L171.328,63.84 C180.711,72.059 186.973,85.98 190.227,102.031 C193.574,118.16 194.125,135.68 194.055,154.383" id="Fill-310" fill="#AE4D2C" mask="url(#mask-2)"></path>
            <path d="M215.867,204.902 L201.691,204.906 C201.66,185.699 202.051,165.008 206.41,143.887 C210.734,123.09 219.395,99.848 238.73,82.531 L248.133,93.137 C232.117,107.422 224.254,127.555 220.285,146.77 C216.266,166.227 215.82,185.859 215.867,204.902" id="Fill-313" fill="#F9DB6C" mask="url(#mask-2)"></path>
            <path d="M173.348,204.902 L159.172,204.906 C159.141,185.699 159.531,165.008 163.891,143.887 C168.215,123.09 176.875,99.848 196.207,82.531 L205.613,93.137 C189.594,107.422 181.734,127.555 177.766,146.77 C173.746,166.227 173.301,185.859 173.348,204.902" id="Fill-315" fill="#F9DB6C" mask="url(#mask-2)"></path>
            <path d="M187.52,204.895 L173.348,204.902 C173.301,185.859 173.746,166.227 177.766,146.773 C181.734,127.555 189.594,107.422 205.613,93.137 L215.016,103.738 C202.316,114.992 195.258,132.02 191.645,149.656 C187.961,167.445 187.465,186.023 187.52,204.895" id="Fill-316" fill="#F5A64B" mask="url(#mask-2)"></path>
            <path d="M201.691,204.887 L187.52,204.895 C187.465,186.023 187.957,167.445 191.645,149.656 C195.258,132.02 202.316,114.992 215.016,103.738 L224.422,114.344 C215.035,122.562 208.777,136.484 205.52,152.539 C202.172,168.664 201.625,186.184 201.691,204.887" id="Fill-317" fill="#AE4D2C" mask="url(#mask-2)"></path>
            <path d="M130.828,204.902 L116.652,204.906 C116.621,185.699 117.012,165.008 121.371,143.887 C125.695,123.09 134.355,99.848 153.688,82.531 L163.094,93.137 C147.074,107.422 139.215,127.555 135.246,146.77 C131.227,166.227 130.781,185.859 130.828,204.902" id="Fill-318" fill="#F9DB6C" mask="url(#mask-2)"></path>
            <path d="M145,204.895 L130.828,204.902 C130.781,185.859 131.227,166.227 135.246,146.773 C139.215,127.555 147.074,107.422 163.094,93.137 L172.496,103.738 C159.797,114.992 152.738,132.02 149.125,149.656 C145.441,167.445 144.945,186.023 145,204.895" id="Fill-319" fill="#F5A64B" mask="url(#mask-2)"></path>
            <path d="M159.172,204.887 L145,204.895 C144.941,186.023 145.438,167.445 149.125,149.656 C152.734,132.02 159.797,114.992 172.496,103.738 L181.902,114.344 C172.516,122.562 166.258,136.484 163,152.539 C159.652,168.664 159.105,186.184 159.172,204.887" id="Fill-320" fill="#AE4D2C" mask="url(#mask-2)"></path>
            <path d="M88.309,204.902 L74.133,204.906 C74.102,185.699 74.492,165.008 78.852,143.887 C83.176,123.09 91.836,99.848 111.168,82.531 L120.574,93.137 C104.555,107.422 96.695,127.555 92.727,146.77 C88.707,166.227 88.262,185.859 88.309,204.902" id="Fill-321" fill="#F9DB6C" mask="url(#mask-2)"></path>
            <path d="M102.48,204.895 L88.309,204.902 C88.262,185.859 88.707,166.227 92.727,146.773 C96.695,127.555 104.555,107.422 120.574,93.137 L129.977,103.738 C117.277,114.992 110.219,132.02 106.605,149.656 C102.922,167.445 102.426,186.023 102.48,204.895" id="Fill-322" fill="#F5A64B" mask="url(#mask-2)"></path>
            <path d="M116.652,204.887 L102.48,204.895 C102.422,186.023 102.918,167.445 106.605,149.656 C110.215,132.02 117.277,114.992 129.977,103.738 L139.383,114.344 C129.996,122.562 123.738,136.484 120.48,152.539 C117.133,168.664 116.586,186.184 116.652,204.887" id="Fill-323" fill="#AE4D2C" mask="url(#mask-2)"></path>
            <path d="M45.789,204.902 L31.613,204.906 C31.582,185.699 31.973,165.008 36.332,143.887 C40.656,123.09 49.316,99.848 68.648,82.531 L78.055,93.137 C62.035,107.422 54.176,127.555 50.207,146.77 C46.188,166.227 45.742,185.859 45.789,204.902" id="Fill-324" fill="#F9DB6C" mask="url(#mask-2)"></path>
            <path d="M59.961,204.895 L45.789,204.902 C45.742,185.859 46.188,166.227 50.207,146.773 C54.176,127.555 62.035,107.422 78.055,93.137 L87.457,103.738 C74.758,114.992 67.699,132.02 64.086,149.656 C60.402,167.445 59.906,186.023 59.961,204.895" id="Fill-325" fill="#F5A64B" mask="url(#mask-2)"></path>
            <path d="M74.133,204.887 L59.961,204.895 C59.906,186.023 60.398,167.445 64.086,149.656 C67.699,132.02 74.758,114.992 87.457,103.738 L96.863,114.344 C87.477,122.562 81.219,136.484 77.961,152.539 C74.613,168.664 74.066,186.184 74.133,204.887" id="Fill-326" fill="#AE4D2C" mask="url(#mask-2)"></path>
            <path d="M3.27,204.902 L-10.906,204.906 C-10.938,185.699 -10.547,165.008 -6.188,143.887 C-1.863,123.09 6.797,99.848 26.129,82.531 L35.535,93.137 C19.516,107.422 11.656,127.555 7.688,146.77 C3.668,166.227 3.223,185.859 3.27,204.902" id="Fill-327" fill="#F9DB6C" mask="url(#mask-2)"></path>
            <path d="M17.441,204.895 L3.27,204.902 C3.223,185.859 3.668,166.227 7.688,146.773 C11.656,127.555 19.516,107.422 35.535,93.137 L44.938,103.738 C32.238,114.992 25.18,132.02 21.566,149.656 C17.883,167.445 17.387,186.023 17.441,204.895" id="Fill-328" fill="#F5A64B" mask="url(#mask-2)"></path>
            <path d="M31.613,204.887 L17.441,204.895 C17.383,186.023 17.879,167.445 21.566,149.656 C25.176,132.02 32.238,114.992 44.938,103.738 L54.344,114.344 C44.957,122.562 38.699,136.484 35.441,152.539 C32.094,168.664 31.547,186.184 31.613,204.887" id="Fill-329" fill="#AE4D2C" mask="url(#mask-2)"></path>
            <path d="M52.324,255.406 L66.496,255.414 C66.531,236.203 66.141,215.512 61.781,194.395 C57.453,173.594 48.797,150.355 29.461,133.035 L20.055,143.641 C36.074,157.926 43.934,178.059 47.902,197.277 C51.926,216.73 52.367,236.363 52.324,255.406" id="Fill-330" fill="#F9DB6C" mask="url(#mask-2)"></path>
            <path d="M38.148,255.398 L52.324,255.406 C52.367,236.363 51.926,216.73 47.902,197.277 C43.934,178.059 36.074,157.926 20.055,143.641 L10.652,154.246 C23.355,165.496 30.414,182.527 34.027,200.16 C37.711,217.953 38.207,236.527 38.148,255.398" id="Fill-331" fill="#F5A64B" mask="url(#mask-2)"></path>
            <path d="M23.977,255.391 L38.148,255.398 C38.207,236.527 37.711,217.953 34.027,200.16 C30.414,182.527 23.355,165.496 10.652,154.246 L1.25,164.848 C10.633,173.07 16.895,186.992 20.148,203.043 C23.496,219.172 24.047,236.688 23.977,255.391" id="Fill-332" fill="#AE4D2C" mask="url(#mask-2)"></path>
            <path d="M94.844,255.406 L109.016,255.414 C109.051,236.203 108.66,215.512 104.301,194.395 C99.973,173.594 91.316,150.355 71.98,133.035 L62.574,143.641 C78.594,157.926 86.453,178.059 90.422,197.277 C94.445,216.73 94.887,236.363 94.844,255.406" id="Fill-333" fill="#F9DB6C" mask="url(#mask-2)"></path>
            <path d="M80.668,255.398 L94.844,255.406 C94.887,236.363 94.445,216.73 90.422,197.277 C86.453,178.059 78.594,157.926 62.574,143.641 L53.172,154.246 C65.875,165.496 72.934,182.527 76.543,200.16 C80.23,217.953 80.727,236.527 80.668,255.398" id="Fill-334" fill="#F5A64B" mask="url(#mask-2)"></path>
            <path d="M66.496,255.391 L80.668,255.398 C80.727,236.527 80.23,217.953 76.547,200.16 C72.934,182.527 65.875,165.496 53.172,154.246 L43.77,164.848 C53.152,173.07 59.414,186.992 62.668,203.043 C66.016,219.172 66.566,236.688 66.496,255.391" id="Fill-335" fill="#AE4D2C" mask="url(#mask-2)"></path>
            <path d="M137.359,255.406 L151.535,255.414 C151.57,236.203 151.18,215.512 146.82,194.395 C142.492,173.594 133.836,150.355 114.5,133.035 L105.094,143.641 C121.113,157.926 128.973,178.059 132.941,197.277 C136.965,216.73 137.406,236.363 137.359,255.406" id="Fill-336" fill="#F9DB6C" mask="url(#mask-2)"></path>
            <path d="M123.188,255.398 L137.363,255.406 C137.406,236.363 136.965,216.73 132.941,197.277 C128.973,178.059 121.113,157.926 105.094,143.641 L95.691,154.246 C108.395,165.496 115.453,182.527 119.066,200.16 C122.75,217.953 123.246,236.527 123.188,255.398" id="Fill-337" fill="#F5A64B" mask="url(#mask-2)"></path>
            <path d="M109.016,255.391 L123.188,255.398 C123.246,236.527 122.75,217.953 119.066,200.16 C115.453,182.527 108.395,165.496 95.691,154.246 L86.289,164.848 C95.672,173.07 101.934,186.992 105.188,203.043 C108.535,219.172 109.086,236.688 109.016,255.391" id="Fill-338" fill="#AE4D2C" mask="url(#mask-2)"></path>
            <path d="M179.883,255.406 L194.055,255.414 C194.09,236.203 193.699,215.512 189.34,194.395 C185.012,173.594 176.355,150.355 157.02,133.035 L147.613,143.641 C163.633,157.926 171.492,178.059 175.461,197.277 C179.484,216.73 179.926,236.363 179.883,255.406" id="Fill-339" fill="#F9DB6C" mask="url(#mask-2)"></path>
            <path d="M165.707,255.398 L179.883,255.406 C179.926,236.363 179.484,216.73 175.461,197.277 C171.492,178.059 163.633,157.926 147.613,143.641 L138.211,154.246 C150.914,165.496 157.973,182.527 161.586,200.16 C165.27,217.953 165.766,236.527 165.707,255.398" id="Fill-340" fill="#F5A64B" mask="url(#mask-2)"></path>
            <path d="M151.535,255.391 L165.707,255.398 C165.766,236.527 165.27,217.953 161.586,200.16 C157.973,182.527 150.914,165.496 138.211,154.246 L128.809,164.848 C138.191,173.07 144.453,186.992 147.707,203.043 C151.055,219.172 151.605,236.688 151.535,255.391" id="Fill-341" fill="#AE4D2C" mask="url(#mask-2)"></path>
            <path d="M222.402,255.406 L236.574,255.414 C236.609,236.203 236.219,215.512 231.859,194.395 C227.531,173.594 218.875,150.355 199.539,133.035 L190.133,143.641 C206.152,157.926 214.012,178.059 217.98,197.277 C222.004,216.73 222.445,236.363 222.402,255.406" id="Fill-342" fill="#F9DB6C" mask="url(#mask-2)"></path>
            <path d="M208.227,255.398 L222.402,255.406 C222.445,236.363 222.004,216.73 217.98,197.277 C214.012,178.059 206.152,157.926 190.133,143.641 L180.73,154.246 C193.434,165.496 200.492,182.527 204.102,200.16 C207.789,217.953 208.285,236.527 208.227,255.398" id="Fill-343" fill="#F5A64B" mask="url(#mask-2)"></path>
            <path d="M194.055,255.391 L208.227,255.398 C208.285,236.527 207.789,217.953 204.105,200.16 C200.492,182.527 193.434,165.496 180.73,154.246 L171.328,164.848 C180.711,173.07 186.973,186.992 190.227,203.043 C193.574,219.172 194.125,236.688 194.055,255.391" id="Fill-344" fill="#AE4D2C" mask="url(#mask-2)"></path>
        </g>
    </g>
</svg>