<?xml version="1.0" encoding="UTF-8"?>
<svg width="211px" height="182px" viewBox="0 0 211 182" version="1.1" xmlns="http://www.w3.org/2000/svg" xmlns:xlink="http://www.w3.org/1999/xlink">
    <!-- Generator: Sketch 52.2 (67145) - http://www.bohemiancoding.com/sketch -->
    <title>Untitled 2</title>
    <desc>Created with Sketch.</desc>
    <defs>
        <polyline id="path-1" points="52.922 0.129 157.805 0.129 210.246 90.961 157.805 181.789 52.922 181.789 0.48 90.961"></polyline>
    </defs>
    <g id="Page-1" stroke="none" stroke-width="1" fill="none" fill-rule="evenodd">
        <g id="Group-5" fill="#262261">
            <polygon id="Fill-4" points="52.922 181.789 0.48 90.957 52.922 0.129 157.805 0.129 210.246 90.957 157.805 181.789"></polygon>
        </g>
        <g id="Group-95">
            <mask id="mask-2" fill="white">
                <use xlink:href="#path-1"></use>
            </mask>
            <g id="Clip-7"></g>
            <path d="M5.336,-3.348 L19.512,-3.348 C20.082,19.406 -0.254,39.742 -23.008,39.172 C-45.766,39.742 -66.098,19.406 -65.527,-3.348 C-66.098,-26.105 -45.762,-46.438 -23.008,-45.867 C-0.254,-46.438 20.082,-26.102 19.512,-3.348 L5.336,-3.348 C5.719,-18.512 -7.844,-32.074 -23.008,-31.695 C-38.172,-32.074 -51.738,-18.512 -51.355,-3.348 C-51.734,11.816 -38.172,25.379 -23.008,24.996 C-7.844,25.379 5.719,11.816 5.336,-3.348" id="Fill-8" fill="#28AAE1" mask="url(#mask-2)"></path>
            <path d="M-8.836,-3.348 L5.336,-3.348 C5.719,11.816 -7.844,25.379 -23.008,24.996 C-38.172,25.379 -51.734,11.816 -51.355,-3.348 C-51.738,-18.512 -38.172,-32.074 -23.008,-31.695 C-7.844,-32.074 5.719,-18.512 5.336,-3.348 L-8.836,-3.348 C-8.641,-10.922 -15.434,-17.715 -23.008,-17.52 C-30.582,-17.715 -37.375,-10.922 -37.184,-3.348 C-37.375,4.223 -30.582,11.02 -23.008,10.824 C-15.434,11.02 -8.641,4.227 -8.836,-3.348" id="Fill-9" fill="#1B75BC" mask="url(#mask-2)"></path>
            <path d="M83.289,-3.348 C83.289,8.395 73.773,17.91 62.031,17.91 C50.289,17.91 40.77,8.395 40.77,-3.348 C40.77,-15.09 50.289,-24.609 62.031,-24.609 C73.773,-24.609 83.289,-15.09 83.289,-3.348" id="Fill-11" fill="#FFFFFF" mask="url(#mask-2)"></path>
            <path d="M90.375,-3.348 L104.551,-3.348 C105.121,19.406 84.785,39.742 62.031,39.172 C39.277,39.742 18.941,19.406 19.512,-3.348 C18.941,-26.102 39.277,-46.438 62.031,-45.867 C84.785,-46.441 105.125,-26.102 104.551,-3.348 L90.375,-3.348 C90.758,-18.512 77.195,-32.074 62.031,-31.695 C46.867,-32.074 33.305,-18.512 33.684,-3.348 C33.305,11.816 46.867,25.379 62.031,24.996 C77.195,25.379 90.758,11.816 90.375,-3.348" id="Fill-12" fill="#28AAE1" mask="url(#mask-2)"></path>
            <path d="M76.203,-3.348 L90.375,-3.348 C90.758,11.816 77.195,25.379 62.031,24.996 C46.867,25.379 33.305,11.816 33.684,-3.348 C33.305,-18.512 46.867,-32.074 62.031,-31.695 C77.195,-32.074 90.758,-18.512 90.375,-3.348 L76.203,-3.348 C76.398,-10.922 69.605,-17.715 62.031,-17.52 C54.457,-17.715 47.664,-10.922 47.859,-3.348 C47.664,4.223 54.457,11.02 62.031,10.824 C69.605,11.02 76.398,4.227 76.203,-3.348" id="Fill-13" fill="#1B75BC" mask="url(#mask-2)"></path>
            <path d="M62.031,-3.348 L76.203,-3.348 C76.398,4.227 69.605,11.02 62.031,10.824 C54.457,11.02 47.664,4.223 47.859,-3.348 C47.664,-10.922 54.457,-17.715 62.031,-17.52 C69.605,-17.715 76.398,-10.922 76.203,-3.348 L62.031,-3.348 Z" id="Fill-14" fill="#2A3890" mask="url(#mask-2)"></path>
            <path d="M168.332,-3.348 C168.332,8.395 158.812,17.91 147.07,17.91 C135.332,17.91 125.809,8.395 125.809,-3.348 C125.809,-15.09 135.332,-24.609 147.07,-24.609 C158.812,-24.609 168.332,-15.09 168.332,-3.348" id="Fill-15" fill="#FFFFFF" mask="url(#mask-2)"></path>
            <path d="M175.414,-3.348 L189.59,-3.348 C190.16,19.406 169.824,39.742 147.07,39.172 C124.312,39.738 103.98,19.406 104.551,-3.348 C103.98,-26.105 124.312,-46.438 147.07,-45.867 C169.824,-46.441 190.16,-26.102 189.59,-3.348 L175.414,-3.348 C175.801,-18.512 162.23,-32.074 147.07,-31.695 C131.906,-32.074 118.344,-18.512 118.727,-3.348 C118.344,11.816 131.906,25.379 147.07,24.996 C162.23,25.379 175.797,11.816 175.414,-3.348" id="Fill-16" fill="#28AAE1" mask="url(#mask-2)"></path>
            <path d="M161.242,-3.348 L175.418,-3.348 C175.797,11.816 162.23,25.379 147.07,24.996 C131.906,25.379 118.344,11.816 118.723,-3.348 C118.344,-18.512 131.906,-32.074 147.07,-31.695 C162.23,-32.074 175.801,-18.512 175.418,-3.348 L161.242,-3.348 C161.434,-10.922 154.645,-17.715 147.07,-17.52 C139.5,-17.715 132.703,-10.922 132.895,-3.348 C132.703,4.223 139.5,11.02 147.07,10.824 C154.641,11.02 161.434,4.227 161.242,-3.348" id="Fill-17" fill="#1B75BC" mask="url(#mask-2)"></path>
            <path d="M147.07,-3.348 L161.242,-3.348 C161.434,4.227 154.641,11.02 147.07,10.824 C139.5,11.02 132.703,4.223 132.895,-3.348 C132.703,-10.922 139.5,-17.715 147.07,-17.52 C154.645,-17.715 161.434,-10.922 161.242,-3.348 L147.07,-3.348 Z" id="Fill-18" fill="#2A3890" mask="url(#mask-2)"></path>
            <path d="M253.367,-3.348 C253.367,8.395 243.852,17.91 232.109,17.91 C220.367,17.91 210.848,8.395 210.848,-3.348 C210.848,-15.09 220.367,-24.609 232.109,-24.609 C243.852,-24.609 253.367,-15.09 253.367,-3.348" id="Fill-19" fill="#FFFFFF" mask="url(#mask-2)"></path>
            <path d="M260.457,-3.348 L274.629,-3.348 C275.199,19.406 254.863,39.742 232.109,39.172 C209.352,39.738 189.02,19.406 189.59,-3.348 C189.02,-26.105 209.352,-46.438 232.109,-45.867 C254.863,-46.441 275.199,-26.102 274.629,-3.348 L260.457,-3.348 C260.84,-18.512 247.27,-32.074 232.109,-31.695 C216.945,-32.074 203.383,-18.512 203.766,-3.348 C203.383,11.816 216.945,25.379 232.109,24.996 C247.27,25.379 260.836,11.816 260.457,-3.348" id="Fill-20" fill="#28AAE1" mask="url(#mask-2)"></path>
            <path d="M246.281,-3.348 L260.457,-3.348 C260.836,11.816 247.27,25.379 232.109,24.996 C216.945,25.379 203.383,11.816 203.762,-3.348 C203.383,-18.512 216.945,-32.074 232.109,-31.695 C247.27,-32.074 260.84,-18.512 260.457,-3.348 L246.281,-3.348 C246.473,-10.922 239.684,-17.715 232.109,-17.52 C224.539,-17.715 217.742,-10.922 217.934,-3.348 C217.742,4.223 224.539,11.02 232.109,10.824 C239.68,11.02 246.473,4.227 246.281,-3.348" id="Fill-21" fill="#1B75BC" mask="url(#mask-2)"></path>
            <path d="M40.77,17.91 C40.77,29.652 31.254,39.172 19.512,39.172 C7.77,39.172 -1.75,29.652 -1.75,17.91 C-1.75,6.168 7.77,-3.348 19.512,-3.348 C31.254,-3.348 40.77,6.168 40.77,17.91" id="Fill-23" fill="#FFFFFF" mask="url(#mask-2)"></path>
            <path d="M47.855,17.91 L62.031,17.91 C62.602,40.664 42.266,61.004 19.512,60.43 C-3.242,61 -23.578,40.668 -23.008,17.91 C-23.578,-4.844 -3.242,-25.18 19.512,-24.609 C42.266,-25.18 62.602,-4.84 62.031,17.91 L47.855,17.91 C48.238,2.75 34.676,-10.816 19.512,-10.434 C4.348,-10.816 -9.215,2.746 -8.836,17.91 C-9.215,33.074 4.348,46.637 19.512,46.258 C34.676,46.641 48.238,33.074 47.855,17.91" id="Fill-24" fill="#28AAE1" mask="url(#mask-2)"></path>
            <path d="M33.684,17.91 L47.855,17.91 C48.238,33.074 34.676,46.641 19.512,46.258 C4.348,46.637 -9.215,33.074 -8.836,17.91 C-9.215,2.746 4.348,-10.816 19.512,-10.434 C34.676,-10.816 48.238,2.75 47.855,17.91 L33.684,17.91 C33.879,10.336 27.086,3.547 19.512,3.738 C11.938,3.547 5.145,10.34 5.34,17.91 C5.145,25.484 11.938,32.277 19.512,32.086 C27.086,32.277 33.879,25.484 33.684,17.91" id="Fill-25" fill="#1B75BC" mask="url(#mask-2)"></path>
            <path d="M19.512,17.91 L33.684,17.91 C33.879,25.484 27.086,32.277 19.512,32.086 C11.938,32.277 5.145,25.484 5.34,17.91 C5.145,10.34 11.938,3.547 19.512,3.738 C27.086,3.547 33.879,10.336 33.684,17.91 L19.512,17.91 Z" id="Fill-26" fill="#2A3890" mask="url(#mask-2)"></path>
            <path d="M125.809,17.91 C125.809,29.652 116.293,39.172 104.551,39.172 C92.809,39.172 83.289,29.652 83.289,17.91 C83.289,6.168 92.809,-3.348 104.551,-3.348 C116.293,-3.348 125.809,6.168 125.809,17.91" id="Fill-27" fill="#FFFFFF" mask="url(#mask-2)"></path>
            <path d="M132.898,17.91 L147.07,17.91 C147.641,40.668 127.301,61.004 104.551,60.43 C81.793,61 61.461,40.668 62.031,17.91 C61.461,-4.844 81.797,-25.18 104.551,-24.609 C127.301,-25.18 147.641,-4.84 147.07,17.91 L132.898,17.91 C133.281,2.75 119.711,-10.816 104.551,-10.434 C89.387,-10.816 75.824,2.746 76.203,17.91 C75.824,33.074 89.387,46.637 104.551,46.258 C119.711,46.641 133.277,33.074 132.898,17.91" id="Fill-28" fill="#28AAE1" mask="url(#mask-2)"></path>
            <path d="M118.723,17.91 L132.898,17.91 C133.277,33.074 119.711,46.641 104.551,46.258 C89.387,46.637 75.824,33.074 76.203,17.91 C75.824,2.746 89.387,-10.816 104.551,-10.434 C119.711,-10.816 133.281,2.75 132.898,17.91 L118.723,17.91 C118.914,10.336 112.125,3.547 104.551,3.738 C96.977,3.547 90.184,10.34 90.379,17.91 C90.184,25.484 96.98,32.277 104.551,32.086 C112.121,32.277 118.914,25.484 118.723,17.91" id="Fill-29" fill="#1B75BC" mask="url(#mask-2)"></path>
            <path d="M104.551,17.91 L118.723,17.91 C118.918,25.484 112.125,32.277 104.551,32.086 C96.977,32.277 90.184,25.484 90.379,17.91 C90.184,10.34 96.977,3.547 104.551,3.738 C112.125,3.547 118.918,10.336 118.723,17.91 L104.551,17.91 Z" id="Fill-30" fill="#2A3890" mask="url(#mask-2)"></path>
            <path d="M210.848,17.91 C210.848,29.652 201.332,39.172 189.59,39.172 C177.848,39.172 168.328,29.652 168.328,17.91 C168.328,6.168 177.848,-3.348 189.59,-3.348 C201.332,-3.348 210.848,6.168 210.848,17.91" id="Fill-31" fill="#FFFFFF" mask="url(#mask-2)"></path>
            <path d="M217.934,17.91 L232.109,17.91 C232.68,40.664 212.344,61.004 189.59,60.43 C166.832,61 146.5,40.668 147.07,17.91 C146.5,-4.844 166.832,-25.18 189.59,-24.609 C212.344,-25.18 232.68,-4.84 232.109,17.91 L217.934,17.91 C218.32,2.75 204.75,-10.816 189.59,-10.434 C174.426,-10.816 160.863,2.746 161.246,17.91 C160.863,33.074 174.426,46.637 189.59,46.258 C204.75,46.641 218.316,33.074 217.934,17.91" id="Fill-32" fill="#28AAE1" mask="url(#mask-2)"></path>
            <path d="M203.762,17.91 L217.938,17.91 C218.316,33.074 204.75,46.641 189.59,46.258 C174.426,46.637 160.863,33.074 161.242,17.91 C160.863,2.746 174.426,-10.816 189.59,-10.434 C204.75,-10.816 218.32,2.75 217.938,17.91 L203.762,17.91 C203.953,10.336 197.164,3.547 189.59,3.738 C182.02,3.547 175.223,10.34 175.414,17.91 C175.223,25.484 182.02,32.277 189.59,32.086 C197.16,32.277 203.953,25.484 203.762,17.91" id="Fill-33" fill="#1B75BC" mask="url(#mask-2)"></path>
            <path d="M189.59,17.91 L203.762,17.91 C203.953,25.484 197.16,32.277 189.59,32.086 C182.02,32.277 175.223,25.484 175.414,17.91 C175.223,10.34 182.02,3.547 189.59,3.738 C197.164,3.547 203.953,10.336 203.762,17.91 L189.59,17.91 Z" id="Fill-34" fill="#2A3890" mask="url(#mask-2)"></path>
            <path d="M5.336,39.172 L19.512,39.172 C20.082,61.926 -0.254,82.262 -23.008,81.691 C-45.762,82.262 -66.098,61.926 -65.527,39.172 C-66.098,16.418 -45.762,-3.918 -23.008,-3.348 C-0.254,-3.922 20.082,16.418 19.512,39.172 L5.336,39.172 C5.719,24.008 -7.844,10.445 -23.008,10.824 C-38.172,10.445 -51.734,24.008 -51.355,39.172 C-51.734,54.336 -38.172,67.898 -23.008,67.516 C-7.844,67.898 5.719,54.336 5.336,39.172" id="Fill-36" fill="#28AAE1" mask="url(#mask-2)"></path>
            <path d="M-8.836,39.172 L5.336,39.172 C5.719,54.336 -7.844,67.898 -23.008,67.516 C-38.172,67.898 -51.734,54.336 -51.355,39.172 C-51.734,24.008 -38.172,10.445 -23.008,10.824 C-7.844,10.445 5.719,24.008 5.336,39.172 L-8.836,39.172 C-8.641,31.598 -15.434,24.805 -23.008,25 C-30.582,24.805 -37.375,31.598 -37.18,39.172 C-37.375,46.742 -30.582,53.539 -23.008,53.344 C-15.434,53.539 -8.641,46.746 -8.836,39.172" id="Fill-37" fill="#1B75BC" mask="url(#mask-2)"></path>
            <path d="M83.289,39.172 C83.289,50.914 73.773,60.43 62.031,60.43 C50.289,60.43 40.77,50.914 40.77,39.172 C40.77,27.43 50.289,17.91 62.031,17.91 C73.773,17.91 83.289,27.43 83.289,39.172" id="Fill-39" fill="#FFFFFF" mask="url(#mask-2)"></path>
            <path d="M90.375,39.172 L104.551,39.172 C105.121,61.926 84.785,82.262 62.031,81.691 C39.273,82.258 18.941,61.926 19.512,39.172 C18.941,16.414 39.277,-3.918 62.031,-3.348 C84.785,-3.922 105.125,16.418 104.551,39.172 L90.375,39.172 C90.758,24.008 77.195,10.445 62.031,10.824 C46.867,10.445 33.305,24.008 33.684,39.172 C33.305,54.336 46.867,67.898 62.031,67.516 C77.195,67.898 90.758,54.336 90.375,39.172" id="Fill-40" fill="#28AAE1" mask="url(#mask-2)"></path>
            <path d="M76.203,39.172 L90.375,39.172 C90.758,54.336 77.195,67.898 62.031,67.516 C46.867,67.898 33.305,54.336 33.684,39.172 C33.305,24.008 46.867,10.445 62.031,10.824 C77.195,10.445 90.758,24.008 90.375,39.172 L76.203,39.172 C76.398,31.598 69.605,24.805 62.031,25 C54.457,24.805 47.664,31.598 47.859,39.172 C47.664,46.742 54.457,53.539 62.031,53.344 C69.605,53.539 76.398,46.746 76.203,39.172" id="Fill-41" fill="#1B75BC" mask="url(#mask-2)"></path>
            <path d="M62.031,39.172 L76.203,39.172 C76.398,46.746 69.605,53.539 62.031,53.344 C54.457,53.539 47.664,46.742 47.859,39.172 C47.664,31.598 54.457,24.805 62.031,25 C69.605,24.805 76.398,31.598 76.203,39.172 L62.031,39.172 Z" id="Fill-42" fill="#2A3890" mask="url(#mask-2)"></path>
            <path d="M168.332,39.172 C168.332,50.914 158.812,60.43 147.07,60.43 C135.332,60.43 125.809,50.914 125.809,39.172 C125.809,27.43 135.332,17.91 147.07,17.91 C158.812,17.91 168.332,27.43 168.332,39.172" id="Fill-43" fill="#FFFFFF" mask="url(#mask-2)"></path>
            <path d="M175.414,39.172 L189.59,39.172 C190.16,61.926 169.824,82.262 147.07,81.691 C124.312,82.258 103.98,61.926 104.551,39.172 C103.98,16.414 124.312,-3.918 147.07,-3.348 C169.824,-3.922 190.16,16.418 189.59,39.172 L175.414,39.172 C175.801,24.008 162.23,10.445 147.07,10.824 C131.906,10.445 118.344,24.008 118.727,39.172 C118.344,54.336 131.906,67.898 147.07,67.516 C162.23,67.898 175.797,54.336 175.414,39.172" id="Fill-44" fill="#28AAE1" mask="url(#mask-2)"></path>
            <path d="M161.242,39.172 L175.418,39.172 C175.797,54.336 162.23,67.898 147.07,67.516 C131.906,67.898 118.344,54.336 118.723,39.172 C118.344,24.008 131.906,10.445 147.07,10.824 C162.23,10.445 175.801,24.008 175.418,39.172 L161.242,39.172 C161.434,31.598 154.645,24.805 147.07,25 C139.5,24.805 132.703,31.598 132.895,39.172 C132.703,46.742 139.5,53.539 147.07,53.344 C154.641,53.539 161.434,46.746 161.242,39.172" id="Fill-45" fill="#1B75BC" mask="url(#mask-2)"></path>
            <path d="M147.07,39.172 L161.242,39.172 C161.434,46.746 154.641,53.539 147.07,53.344 C139.5,53.539 132.703,46.742 132.895,39.172 C132.703,31.598 139.5,24.805 147.07,25 C154.645,24.805 161.434,31.598 161.242,39.172 L147.07,39.172 Z" id="Fill-46" fill="#2A3890" mask="url(#mask-2)"></path>
            <path d="M253.367,39.172 C253.367,50.914 243.852,60.43 232.109,60.43 C220.367,60.43 210.848,50.914 210.848,39.172 C210.848,27.43 220.367,17.91 232.109,17.91 C243.852,17.91 253.367,27.43 253.367,39.172" id="Fill-47" fill="#FFFFFF" mask="url(#mask-2)"></path>
            <path d="M260.457,39.172 L274.629,39.172 C275.199,61.926 254.863,82.262 232.109,81.691 C209.352,82.258 189.02,61.926 189.59,39.172 C189.02,16.414 209.352,-3.918 232.109,-3.348 C254.863,-3.922 275.199,16.418 274.629,39.172 L260.457,39.172 C260.84,24.008 247.27,10.445 232.109,10.824 C216.945,10.445 203.383,24.008 203.766,39.172 C203.383,54.336 216.945,67.898 232.109,67.516 C247.27,67.898 260.836,54.336 260.457,39.172" id="Fill-48" fill="#28AAE1" mask="url(#mask-2)"></path>
            <path d="M246.281,39.172 L260.457,39.172 C260.836,54.336 247.27,67.898 232.109,67.516 C216.945,67.898 203.383,54.336 203.762,39.172 C203.383,24.008 216.945,10.445 232.109,10.824 C247.27,10.445 260.84,24.008 260.457,39.172 L246.281,39.172 C246.473,31.598 239.684,24.805 232.109,25 C224.539,24.805 217.742,31.598 217.934,39.172 C217.742,46.742 224.539,53.539 232.109,53.344 C239.68,53.539 246.473,46.746 246.281,39.172" id="Fill-49" fill="#1B75BC" mask="url(#mask-2)"></path>
            <path d="M40.77,60.43 C40.77,72.172 31.254,81.691 19.512,81.691 C7.77,81.691 -1.75,72.172 -1.75,60.43 C-1.75,48.688 7.77,39.172 19.512,39.172 C31.254,39.172 40.77,48.688 40.77,60.43" id="Fill-51" fill="#FFFFFF" mask="url(#mask-2)"></path>
            <path d="M47.855,60.43 L62.031,60.43 C62.602,83.184 42.266,103.523 19.512,102.953 C-3.242,103.52 -23.578,83.188 -23.008,60.43 C-23.578,37.676 -3.242,17.34 19.512,17.91 C42.266,17.34 62.602,37.68 62.031,60.43 L47.855,60.43 C48.238,45.27 34.676,31.703 19.512,32.086 C4.348,31.703 -9.215,45.266 -8.836,60.43 C-9.215,75.594 4.348,89.16 19.512,88.777 C34.676,89.16 48.238,75.594 47.855,60.43" id="Fill-52" fill="#28AAE1" mask="url(#mask-2)"></path>
            <path d="M33.684,60.43 L47.855,60.43 C48.238,75.594 34.676,89.16 19.512,88.777 C4.348,89.16 -9.215,75.594 -8.836,60.43 C-9.215,45.266 4.348,31.703 19.512,32.086 C34.676,31.703 48.238,45.27 47.855,60.43 L33.684,60.43 C33.879,52.855 27.086,46.066 19.512,46.258 C11.938,46.066 5.145,52.859 5.34,60.43 C5.145,68.004 11.938,74.797 19.512,74.605 C27.086,74.797 33.879,68.004 33.684,60.43" id="Fill-53" fill="#1B75BC" mask="url(#mask-2)"></path>
            <path d="M19.512,60.43 L33.684,60.43 C33.879,68.004 27.086,74.797 19.512,74.605 C11.938,74.797 5.145,68.004 5.34,60.43 C5.145,52.859 11.938,46.066 19.512,46.258 C27.086,46.066 33.879,52.855 33.684,60.43 L19.512,60.43 Z" id="Fill-54" fill="#2A3890" mask="url(#mask-2)"></path>
            <path d="M125.809,60.43 C125.809,72.172 116.293,81.691 104.551,81.691 C92.809,81.691 83.289,72.172 83.289,60.43 C83.289,48.688 92.809,39.172 104.551,39.172 C116.293,39.172 125.809,48.688 125.809,60.43" id="Fill-55" fill="#FFFFFF" mask="url(#mask-2)"></path>
            <path d="M132.898,60.43 L147.07,60.43 C147.641,83.188 127.301,103.523 104.551,102.953 C81.793,103.52 61.461,83.188 62.031,60.43 C61.461,37.676 81.797,17.34 104.551,17.91 C127.301,17.34 147.641,37.68 147.07,60.43 L132.898,60.43 C133.281,45.27 119.711,31.703 104.551,32.086 C89.387,31.703 75.824,45.266 76.203,60.43 C75.824,75.594 89.387,89.16 104.551,88.777 C119.711,89.16 133.277,75.594 132.898,60.43" id="Fill-56" fill="#28AAE1" mask="url(#mask-2)"></path>
            <path d="M118.723,60.43 L132.898,60.43 C133.277,75.594 119.711,89.16 104.551,88.777 C89.387,89.16 75.824,75.594 76.203,60.43 C75.824,45.266 89.387,31.703 104.551,32.086 C119.711,31.703 133.281,45.27 132.898,60.43 L118.723,60.43 C118.914,52.855 112.125,46.066 104.551,46.258 C96.977,46.066 90.184,52.859 90.379,60.43 C90.184,68.004 96.98,74.797 104.551,74.605 C112.121,74.797 118.914,68.004 118.723,60.43" id="Fill-57" fill="#1B75BC" mask="url(#mask-2)"></path>
            <path d="M104.551,60.43 L118.723,60.43 C118.918,68.004 112.125,74.797 104.551,74.605 C96.977,74.797 90.184,68.004 90.379,60.43 C90.184,52.859 96.977,46.066 104.551,46.258 C112.125,46.066 118.918,52.855 118.723,60.43 L104.551,60.43 Z" id="Fill-58" fill="#2A3890" mask="url(#mask-2)"></path>
            <path d="M210.848,60.43 C210.848,72.172 201.332,81.691 189.59,81.691 C177.848,81.691 168.328,72.172 168.328,60.43 C168.328,48.688 177.848,39.172 189.59,39.172 C201.332,39.172 210.848,48.688 210.848,60.43" id="Fill-59" fill="#FFFFFF" mask="url(#mask-2)"></path>
            <path d="M217.934,60.43 L232.109,60.43 C232.68,83.184 212.344,103.523 189.59,102.953 C166.832,103.52 146.5,83.188 147.07,60.43 C146.5,37.676 166.832,17.34 189.59,17.91 C212.344,17.34 232.68,37.68 232.109,60.43 L217.934,60.43 C218.32,45.27 204.75,31.703 189.59,32.086 C174.426,31.703 160.863,45.266 161.246,60.43 C160.863,75.594 174.426,89.16 189.59,88.777 C204.75,89.16 218.316,75.594 217.934,60.43" id="Fill-60" fill="#28AAE1" mask="url(#mask-2)"></path>
            <path d="M203.762,60.43 L217.938,60.43 C218.316,75.594 204.75,89.16 189.59,88.777 C174.426,89.16 160.863,75.594 161.242,60.43 C160.863,45.266 174.426,31.703 189.59,32.086 C204.75,31.703 218.32,45.27 217.938,60.43 L203.762,60.43 C203.953,52.855 197.164,46.066 189.59,46.258 C182.02,46.066 175.223,52.859 175.414,60.43 C175.223,68.004 182.02,74.797 189.59,74.605 C197.16,74.797 203.953,68.004 203.762,60.43" id="Fill-61" fill="#1B75BC" mask="url(#mask-2)"></path>
            <path d="M189.59,60.43 L203.762,60.43 C203.953,68.004 197.16,74.797 189.59,74.605 C182.02,74.797 175.223,68.004 175.414,60.43 C175.223,52.859 182.02,46.066 189.59,46.258 C197.164,46.066 203.953,52.855 203.762,60.43 L189.59,60.43 Z" id="Fill-62" fill="#2A3890" mask="url(#mask-2)"></path>
            <path d="M5.336,81.691 L19.512,81.691 C20.082,104.445 -0.254,124.781 -23.008,124.211 C-45.762,124.781 -66.098,104.445 -65.527,81.691 C-66.098,58.938 -45.762,38.602 -23.008,39.172 C-0.254,38.598 20.082,58.938 19.512,81.691 L5.336,81.691 C5.719,66.527 -7.844,52.965 -23.008,53.344 C-38.172,52.965 -51.734,66.527 -51.355,81.691 C-51.734,96.855 -38.172,110.418 -23.008,110.035 C-7.844,110.418 5.719,96.855 5.336,81.691" id="Fill-64" fill="#28AAE1" mask="url(#mask-2)"></path>
            <path d="M-8.836,81.691 L5.336,81.691 C5.719,96.855 -7.844,110.418 -23.008,110.035 C-38.172,110.418 -51.734,96.855 -51.355,81.691 C-51.734,66.527 -38.172,52.965 -23.008,53.344 C-7.844,52.965 5.719,66.527 5.336,81.691 L-8.836,81.691 C-8.641,74.117 -15.434,67.324 -23.008,67.52 C-30.582,67.324 -37.375,74.117 -37.18,81.691 C-37.375,89.262 -30.582,96.059 -23.008,95.863 C-15.434,96.059 -8.641,89.266 -8.836,81.691" id="Fill-65" fill="#1B75BC" mask="url(#mask-2)"></path>
            <path d="M83.289,81.691 C83.289,93.434 73.773,102.949 62.031,102.949 C50.289,102.949 40.77,93.434 40.77,81.691 C40.77,69.949 50.289,60.43 62.031,60.43 C73.773,60.43 83.289,69.949 83.289,81.691" id="Fill-67" fill="#FFFFFF" mask="url(#mask-2)"></path>
            <path d="M90.375,81.691 L104.551,81.691 C105.121,104.445 84.785,124.781 62.031,124.211 C39.273,124.777 18.941,104.445 19.512,81.691 C18.941,58.934 39.277,38.602 62.031,39.172 C84.785,38.598 105.125,58.938 104.551,81.691 L90.375,81.691 C90.758,66.527 77.195,52.965 62.031,53.344 C46.867,52.965 33.305,66.527 33.684,81.691 C33.305,96.855 46.867,110.418 62.031,110.035 C77.195,110.418 90.758,96.855 90.375,81.691" id="Fill-68" fill="#28AAE1" mask="url(#mask-2)"></path>
            <path d="M76.203,81.691 L90.375,81.691 C90.758,96.855 77.195,110.418 62.031,110.035 C46.867,110.418 33.305,96.855 33.684,81.691 C33.305,66.527 46.867,52.965 62.031,53.344 C77.195,52.965 90.758,66.527 90.375,81.691 L76.203,81.691 C76.398,74.117 69.605,67.324 62.031,67.52 C54.457,67.324 47.664,74.117 47.859,81.691 C47.664,89.262 54.457,96.059 62.031,95.863 C69.605,96.059 76.398,89.266 76.203,81.691" id="Fill-69" fill="#1B75BC" mask="url(#mask-2)"></path>
            <path d="M62.031,81.691 L76.203,81.691 C76.398,89.266 69.605,96.059 62.031,95.863 C54.457,96.059 47.664,89.262 47.859,81.691 C47.664,74.117 54.457,67.324 62.031,67.52 C69.605,67.324 76.398,74.117 76.203,81.691 L62.031,81.691 Z" id="Fill-70" fill="#2A3890" mask="url(#mask-2)"></path>
            <path d="M168.332,81.691 C168.332,93.434 158.812,102.949 147.07,102.949 C135.332,102.949 125.809,93.434 125.809,81.691 C125.809,69.949 135.332,60.43 147.07,60.43 C158.812,60.43 168.332,69.949 168.332,81.691" id="Fill-71" fill="#FFFFFF" mask="url(#mask-2)"></path>
            <path d="M175.414,81.691 L189.59,81.691 C190.16,104.445 169.824,124.781 147.07,124.211 C124.312,124.777 103.98,104.445 104.551,81.691 C103.98,58.934 124.312,38.602 147.07,39.172 C169.824,38.598 190.16,58.938 189.59,81.691 L175.414,81.691 C175.801,66.527 162.23,52.965 147.07,53.344 C131.906,52.965 118.344,66.527 118.727,81.691 C118.344,96.855 131.906,110.418 147.07,110.035 C162.23,110.418 175.797,96.855 175.414,81.691" id="Fill-72" fill="#28AAE1" mask="url(#mask-2)"></path>
            <path d="M161.242,81.691 L175.418,81.691 C175.797,96.855 162.23,110.418 147.07,110.035 C131.906,110.418 118.344,96.855 118.723,81.691 C118.344,66.527 131.906,52.965 147.07,53.344 C162.23,52.965 175.801,66.527 175.418,81.691 L161.242,81.691 C161.434,74.117 154.645,67.324 147.07,67.52 C139.5,67.324 132.703,74.117 132.895,81.691 C132.703,89.262 139.5,96.059 147.07,95.863 C154.641,96.059 161.434,89.266 161.242,81.691" id="Fill-73" fill="#1B75BC" mask="url(#mask-2)"></path>
            <path d="M147.07,81.691 L161.242,81.691 C161.434,89.266 154.641,96.059 147.07,95.863 C139.5,96.059 132.703,89.262 132.895,81.691 C132.703,74.117 139.5,67.324 147.07,67.52 C154.645,67.324 161.434,74.117 161.242,81.691 L147.07,81.691 Z" id="Fill-74" fill="#2A3890" mask="url(#mask-2)"></path>
            <path d="M253.367,81.691 C253.367,93.434 243.852,102.949 232.109,102.949 C220.367,102.949 210.848,93.434 210.848,81.691 C210.848,69.949 220.367,60.43 232.109,60.43 C243.852,60.43 253.367,69.949 253.367,81.691" id="Fill-75" fill="#FFFFFF" mask="url(#mask-2)"></path>
            <path d="M260.457,81.691 L274.629,81.691 C275.199,104.445 254.863,124.781 232.109,124.211 C209.352,124.777 189.02,104.445 189.59,81.691 C189.02,58.934 209.352,38.602 232.109,39.172 C254.863,38.598 275.199,58.938 274.629,81.691 L260.457,81.691 C260.84,66.527 247.27,52.965 232.109,53.344 C216.945,52.965 203.383,66.527 203.766,81.691 C203.383,96.855 216.945,110.418 232.109,110.035 C247.27,110.418 260.836,96.855 260.457,81.691" id="Fill-76" fill="#28AAE1" mask="url(#mask-2)"></path>
            <path d="M246.281,81.691 L260.457,81.691 C260.836,96.855 247.27,110.418 232.109,110.035 C216.945,110.418 203.383,96.855 203.762,81.691 C203.383,66.527 216.945,52.965 232.109,53.344 C247.27,52.965 260.84,66.527 260.457,81.691 L246.281,81.691 C246.473,74.117 239.684,67.324 232.109,67.52 C224.539,67.324 217.742,74.117 217.934,81.691 C217.742,89.262 224.539,96.059 232.109,95.863 C239.68,96.059 246.473,89.266 246.281,81.691" id="Fill-77" fill="#1B75BC" mask="url(#mask-2)"></path>
            <path d="M40.77,102.949 C40.77,114.691 31.254,124.211 19.512,124.211 C7.77,124.211 -1.75,114.691 -1.75,102.949 C-1.75,91.207 7.77,81.691 19.512,81.691 C31.254,81.691 40.77,91.207 40.77,102.949" id="Fill-79" fill="#FFFFFF" mask="url(#mask-2)"></path>
            <path d="M47.855,102.949 L62.031,102.949 C62.602,125.703 42.266,146.043 19.512,145.473 C-3.242,146.039 -23.578,125.707 -23.008,102.949 C-23.578,80.195 -3.242,59.859 19.512,60.43 C42.266,59.859 62.602,80.199 62.031,102.949 L47.855,102.949 C48.238,87.789 34.676,74.223 19.512,74.605 C4.348,74.223 -9.215,87.785 -8.836,102.949 C-9.215,118.113 4.348,131.676 19.512,131.297 C34.676,131.68 48.238,118.113 47.855,102.949" id="Fill-80" fill="#28AAE1" mask="url(#mask-2)"></path>
            <path d="M33.684,102.949 L47.855,102.949 C48.238,118.113 34.676,131.68 19.512,131.297 C4.348,131.676 -9.215,118.113 -8.836,102.949 C-9.215,87.785 4.348,74.223 19.512,74.605 C34.676,74.223 48.238,87.789 47.855,102.949 L33.684,102.949 C33.879,95.375 27.086,88.586 19.512,88.777 C11.938,88.586 5.145,95.379 5.34,102.949 C5.145,110.523 11.938,117.316 19.512,117.125 C27.086,117.316 33.879,110.523 33.684,102.949" id="Fill-81" fill="#1B75BC" mask="url(#mask-2)"></path>
            <path d="M19.512,102.949 L33.684,102.949 C33.879,110.523 27.086,117.316 19.512,117.125 C11.938,117.316 5.145,110.523 5.34,102.949 C5.145,95.379 11.938,88.586 19.512,88.777 C27.086,88.586 33.879,95.375 33.684,102.949 L19.512,102.949 Z" id="Fill-82" fill="#2A3890" mask="url(#mask-2)"></path>
            <path d="M125.809,102.949 C125.809,114.691 116.293,124.211 104.551,124.211 C92.809,124.211 83.289,114.691 83.289,102.949 C83.289,91.207 92.809,81.691 104.551,81.691 C116.293,81.691 125.809,91.207 125.809,102.949" id="Fill-83" fill="#FFFFFF" mask="url(#mask-2)"></path>
            <path d="M132.898,102.949 L147.07,102.949 C147.641,125.707 127.301,146.043 104.551,145.473 C81.793,146.039 61.461,125.707 62.031,102.949 C61.461,80.195 81.797,59.859 104.551,60.43 C127.301,59.859 147.641,80.199 147.07,102.949 L132.898,102.949 C133.281,87.789 119.711,74.223 104.551,74.605 C89.387,74.223 75.824,87.785 76.203,102.949 C75.824,118.113 89.387,131.676 104.551,131.297 C119.711,131.68 133.277,118.113 132.898,102.949" id="Fill-84" fill="#28AAE1" mask="url(#mask-2)"></path>
            <path d="M118.723,102.949 L132.898,102.949 C133.277,118.113 119.711,131.68 104.551,131.297 C89.387,131.676 75.824,118.113 76.203,102.949 C75.824,87.785 89.387,74.223 104.551,74.605 C119.711,74.223 133.281,87.789 132.898,102.949 L118.723,102.949 C118.914,95.375 112.125,88.586 104.551,88.777 C96.977,88.586 90.184,95.379 90.379,102.949 C90.184,110.523 96.98,117.316 104.551,117.125 C112.121,117.316 118.914,110.523 118.723,102.949" id="Fill-85" fill="#1B75BC" mask="url(#mask-2)"></path>
            <path d="M104.551,102.949 L118.723,102.949 C118.918,110.523 112.125,117.316 104.551,117.125 C96.977,117.316 90.184,110.523 90.379,102.949 C90.184,95.379 96.977,88.586 104.551,88.777 C112.125,88.586 118.918,95.375 118.723,102.949 L104.551,102.949 Z" id="Fill-86" fill="#2A3890" mask="url(#mask-2)"></path>
            <path d="M210.848,102.949 C210.848,114.691 201.332,124.211 189.59,124.211 C177.848,124.211 168.328,114.691 168.328,102.949 C168.328,91.207 177.848,81.691 189.59,81.691 C201.332,81.691 210.848,91.207 210.848,102.949" id="Fill-87" fill="#FFFFFF" mask="url(#mask-2)"></path>
            <path d="M217.934,102.949 L232.109,102.949 C232.68,125.703 212.344,146.043 189.59,145.473 C166.832,146.039 146.5,125.707 147.07,102.949 C146.5,80.195 166.832,59.859 189.59,60.43 C212.344,59.859 232.68,80.199 232.109,102.949 L217.934,102.949 C218.32,87.789 204.75,74.223 189.59,74.605 C174.426,74.223 160.863,87.785 161.246,102.949 C160.863,118.113 174.426,131.676 189.59,131.297 C204.75,131.68 218.316,118.113 217.934,102.949" id="Fill-88" fill="#28AAE1" mask="url(#mask-2)"></path>
            <path d="M203.762,102.949 L217.938,102.949 C218.316,118.113 204.75,131.68 189.59,131.297 C174.426,131.676 160.863,118.113 161.242,102.949 C160.863,87.785 174.426,74.223 189.59,74.605 C204.75,74.223 218.32,87.789 217.938,102.949 L203.762,102.949 C203.953,95.375 197.164,88.586 189.59,88.777 C182.02,88.586 175.223,95.379 175.414,102.949 C175.223,110.523 182.02,117.316 189.59,117.125 C197.16,117.316 203.953,110.523 203.762,102.949" id="Fill-89" fill="#1B75BC" mask="url(#mask-2)"></path>
            <path d="M189.59,102.949 L203.762,102.949 C203.953,110.523 197.16,117.316 189.59,117.125 C182.02,117.316 175.223,110.523 175.414,102.949 C175.223,95.379 182.02,88.586 189.59,88.777 C197.164,88.586 203.953,95.375 203.762,102.949 L189.59,102.949 Z" id="Fill-90" fill="#2A3890" mask="url(#mask-2)"></path>
            <path d="M-129.309,124.211 C-129.309,112.469 -119.789,102.949 -108.047,102.949 C-96.305,102.949 -86.789,112.469 -86.789,124.211 C-86.789,135.953 -77.27,145.469 -65.527,145.469 C-53.785,145.469 -44.27,135.953 -44.27,124.211 C-44.27,112.469 -34.75,102.949 -23.008,102.949 C-11.266,102.949 -1.75,112.469 -1.75,124.211 C-1.75,135.953 7.77,145.469 19.512,145.469 C31.25,145.469 40.77,135.953 40.77,124.211 C40.77,112.469 50.289,102.949 62.031,102.949 C73.773,102.949 83.289,112.469 83.289,124.211 C83.289,135.953 92.809,145.469 104.551,145.469 C116.293,145.469 125.809,135.953 125.809,124.211 C125.809,112.469 135.328,102.949 147.07,102.949 C158.812,102.949 168.332,112.469 168.332,124.211 C168.332,135.953 177.848,145.469 189.59,145.469 C201.332,145.469 210.848,135.953 210.848,124.211 C210.848,112.469 220.367,102.949 232.109,102.949 C243.852,102.949 253.371,112.469 253.371,124.211 C253.371,135.953 262.887,145.469 274.629,145.469 C286.371,145.469 295.887,135.953 295.887,124.211 C295.887,112.469 305.406,102.949 317.148,102.949 C328.891,102.949 338.41,112.469 338.41,124.211 C338.41,135.953 347.926,145.469 359.668,145.469 C371.41,145.469 380.926,135.953 380.926,124.211" id="Fill-91" fill="#FFFFFF" mask="url(#mask-2)"></path>
            <path d="M-136.395,124.211 L-150.566,124.211 C-150.645,107.367 -139.918,91.273 -124.324,84.938 C-108.785,78.398 -89.836,82.172 -77.98,94.145 C-72.16,100.117 -68.102,107.727 -66.352,115.934 C-64.91,127.863 -65.641,123.32 -65.645,124.25 C-65.227,123.992 -65.691,124.375 -65.527,124.211 C-65.367,124.371 -65.828,123.992 -65.414,124.25 C-65.418,123.32 -66.148,127.859 -64.707,115.934 C-62.953,107.723 -58.895,100.117 -53.074,94.145 C-41.223,82.172 -22.27,78.398 -6.73,84.938 C8.863,91.27 19.59,107.367 19.512,124.211 C19.422,124.137 19.574,124.5 19.512,124.211 C19.363,124.066 19.57,124.254 19.594,124.25 C19.125,127.906 19.574,114.855 22.758,107.934 C29.094,92.34 45.188,81.613 62.031,81.691 C78.875,81.613 94.969,92.34 101.301,107.934 C104.488,114.855 104.934,127.906 104.469,124.25 C104.492,124.254 104.699,124.066 104.551,124.211 C104.48,124.496 104.641,124.133 104.551,124.211 C104.473,107.367 115.199,91.273 130.793,84.938 C146.332,78.398 165.281,82.172 177.133,94.145 C182.957,100.117 187.016,107.723 188.766,115.934 C190.211,127.859 189.477,123.32 189.473,124.25 C189.887,123.992 189.426,124.371 189.59,124.211 C189.75,124.375 189.289,123.992 189.707,124.25 C189.703,123.32 188.969,127.863 190.414,115.938 C192.164,107.727 196.223,100.117 202.043,94.145 C213.895,82.172 232.844,78.398 248.387,84.938 C263.98,91.27 274.707,107.367 274.629,124.211 C274.539,124.137 274.695,124.5 274.629,124.211 C274.477,124.066 274.684,124.254 274.711,124.25 C274.242,127.906 274.691,114.859 277.879,107.934 C284.211,92.34 300.301,81.613 317.148,81.691 C333.992,81.613 350.086,92.34 356.418,107.934 C359.605,114.855 360.051,127.906 359.586,124.25 C359.609,124.254 359.816,124.066 359.668,124.211 C359.602,124.496 359.754,124.137 359.668,124.211 L373.84,124.211 C373.789,129.844 370.285,135.102 365.086,137.297 C359.863,139.387 353.668,138.199 349.645,134.23 C347.746,132.168 346.445,129.676 345.777,126.98 C345.512,125.465 345.473,118.27 343.328,113.363 C339.062,102.965 328.387,95.852 317.148,95.863 C305.91,95.852 295.23,102.965 290.969,113.363 C288.824,118.273 288.785,125.465 288.52,126.98 C287.848,129.676 286.547,132.168 284.648,134.23 C280.629,138.199 274.434,139.387 269.211,137.297 C264.012,135.102 260.508,129.848 260.457,124.211 C260.465,112.969 253.352,102.297 242.957,98.031 C232.574,93.719 220.004,96.199 212.062,104.168 C208.207,108.184 205.523,113.238 204.316,118.688 C203.512,125.418 203.742,126.727 202.676,129.629 C200.48,134.828 195.223,138.332 189.59,138.383 C183.953,138.332 178.699,134.828 176.504,129.629 C175.438,126.727 175.668,125.418 174.863,118.688 C173.652,113.234 170.973,108.184 167.113,104.168 C159.172,96.199 146.602,93.719 136.219,98.031 C125.828,102.297 118.711,112.973 118.723,124.211 C118.668,129.844 115.168,135.102 109.969,137.297 C104.746,139.387 98.551,138.199 94.527,134.23 C92.629,132.168 91.328,129.676 90.66,126.98 C90.395,125.465 90.355,118.27 88.211,113.363 C83.945,102.965 73.27,95.852 62.031,95.863 C50.793,95.852 40.117,102.965 35.852,113.363 C33.707,118.27 33.664,125.465 33.402,126.98 C32.73,129.676 31.434,132.168 29.535,134.23 C25.508,138.199 19.316,139.387 14.094,137.297 C8.895,135.102 5.391,129.844 5.336,124.211 C5.348,112.969 -1.766,102.297 -12.16,98.031 C-22.543,93.719 -35.113,96.199 -43.051,104.168 C-46.91,108.184 -49.59,113.234 -50.801,118.688 C-51.605,125.418 -51.375,126.727 -52.441,129.629 C-54.637,134.828 -59.895,138.332 -65.527,138.383 C-71.164,138.332 -76.418,134.828 -78.617,129.629 C-79.68,126.727 -79.453,125.418 -80.254,118.688 C-81.465,113.234 -84.145,108.184 -88.004,104.168 C-95.941,96.199 -108.516,93.715 -118.895,98.031 C-129.293,102.297 -136.406,112.969 -136.395,124.211" id="Fill-92" fill="#28AAE1" mask="url(#mask-2)"></path>
            <path d="M-122.219,124.211 L-136.395,124.211 C-136.406,112.969 -129.293,102.297 -118.895,98.031 C-108.516,93.715 -95.941,96.199 -88.004,104.168 C-84.145,108.184 -81.465,113.234 -80.254,118.688 C-79.453,125.418 -79.68,126.727 -78.617,129.629 C-76.418,134.828 -71.164,138.332 -65.527,138.383 C-59.895,138.332 -54.637,134.828 -52.441,129.629 C-51.375,126.727 -51.605,125.418 -50.801,118.688 C-49.59,113.234 -46.91,108.184 -43.051,104.168 C-35.113,96.199 -22.543,93.719 -12.16,98.031 C-1.766,102.297 5.348,112.969 5.336,124.211 C5.391,129.844 8.895,135.102 14.094,137.297 C19.316,139.387 25.508,138.199 29.535,134.23 C31.434,132.168 32.734,129.676 33.402,126.98 C33.664,125.465 33.707,118.27 35.852,113.363 C40.117,102.965 50.793,95.852 62.031,95.863 C73.27,95.852 83.945,102.965 88.211,113.363 C90.355,118.27 90.395,125.465 90.66,126.98 C91.328,129.676 92.629,132.168 94.527,134.23 C98.551,138.199 104.746,139.387 109.969,137.297 C115.168,135.102 118.672,129.844 118.723,124.211 C118.711,112.973 125.828,102.297 136.219,98.031 C146.602,93.719 159.176,96.199 167.113,104.168 C170.973,108.184 173.652,113.234 174.863,118.688 C175.668,125.418 175.438,126.727 176.504,129.629 C178.699,134.828 183.953,138.332 189.59,138.383 C195.223,138.332 200.48,134.828 202.676,129.629 C203.742,126.727 203.512,125.418 204.316,118.688 C205.523,113.238 208.207,108.184 212.062,104.168 C220.004,96.199 232.574,93.719 242.957,98.031 C253.352,102.297 260.469,112.969 260.457,124.211 C260.508,129.848 264.012,135.102 269.211,137.297 C274.434,139.387 280.629,138.199 284.648,134.23 C286.551,132.168 287.848,129.676 288.52,126.98 C288.785,125.465 288.824,118.273 290.969,113.363 C295.23,102.965 305.91,95.852 317.148,95.863 C328.387,95.852 339.062,102.965 343.328,113.363 C345.473,118.27 345.512,125.465 345.777,126.98 C346.445,129.676 347.746,132.168 349.645,134.23 C353.668,138.199 359.859,139.387 365.086,137.297 C370.285,135.102 373.789,129.844 373.844,124.211 L388.012,124.211 C388.023,135.453 380.91,146.125 370.516,150.391 C360.133,154.707 347.559,152.223 339.625,144.254 C335.762,140.238 333.086,135.184 331.875,129.73 C331.07,123.004 331.301,121.695 330.234,118.793 C328.039,113.594 322.785,110.09 317.148,110.039 C311.512,110.09 306.258,113.594 304.059,118.793 C303,121.695 303.223,123.004 302.422,129.734 C301.211,135.184 298.531,140.238 294.672,144.254 C286.734,152.223 274.164,154.707 263.777,150.391 C253.383,146.125 246.27,135.449 246.281,124.211 C246.227,118.574 242.723,113.32 237.527,111.125 C232.301,109.035 226.109,110.223 222.086,114.188 C220.188,116.254 218.887,118.746 218.219,121.438 C217.957,122.957 217.914,130.148 215.766,135.059 C211.504,145.457 200.832,152.57 189.59,152.559 C178.348,152.57 167.676,145.453 163.41,135.059 C161.262,130.148 161.223,122.957 160.961,121.438 C160.293,118.746 158.992,116.254 157.094,114.188 C153.066,110.223 146.875,109.035 141.648,111.125 C136.453,113.32 132.953,118.574 132.895,124.211 C132.91,135.453 125.793,146.125 115.398,150.391 C105.016,154.707 92.445,152.223 84.508,144.254 C80.645,140.238 77.965,135.184 76.758,129.734 C75.953,123.004 76.18,121.695 75.117,118.793 C72.922,113.594 67.668,110.09 62.031,110.039 C56.395,110.09 51.141,113.594 48.945,118.793 C47.879,121.695 48.109,123.004 47.305,129.734 C46.094,135.184 43.414,140.238 39.555,144.254 C31.617,152.223 19.047,154.707 8.664,150.391 C-1.734,146.125 -8.848,135.449 -8.836,124.211 C-8.891,118.574 -12.391,113.32 -17.59,111.125 C-22.816,109.035 -29.008,110.223 -33.031,114.188 C-34.93,116.254 -36.23,118.746 -36.898,121.438 C-37.164,122.957 -37.203,130.148 -39.348,135.059 C-43.613,145.453 -54.289,152.57 -65.527,152.559 C-76.77,152.57 -87.445,145.457 -91.707,135.059 C-93.855,130.148 -93.895,122.957 -94.156,121.438 C-94.828,118.746 -96.125,116.254 -98.027,114.188 C-102.051,110.223 -108.242,109.035 -113.465,111.125 C-118.664,113.32 -122.168,118.574 -122.219,124.211" id="Fill-93" fill="#1B75BC" mask="url(#mask-2)"></path>
            <path d="M-108.047,124.211 L-122.223,124.211 C-122.168,118.574 -118.664,113.32 -113.469,111.125 C-108.242,109.035 -102.051,110.223 -98.027,114.188 C-96.125,116.254 -94.828,118.746 -94.156,121.438 C-93.895,122.957 -93.855,130.148 -91.707,135.059 C-87.445,145.457 -76.77,152.57 -65.527,152.559 C-54.289,152.57 -43.613,145.453 -39.348,135.059 C-37.203,130.148 -37.164,122.957 -36.898,121.438 C-36.23,118.746 -34.93,116.254 -33.031,114.188 C-29.008,110.223 -22.816,109.035 -17.59,111.125 C-12.391,113.32 -8.891,118.574 -8.836,124.211 C-8.848,135.449 -1.734,146.125 8.66,150.391 C19.047,154.707 31.617,152.223 39.555,144.254 C43.414,140.238 46.094,135.184 47.305,129.734 C48.109,123.004 47.879,121.695 48.945,118.793 C51.141,113.594 56.395,110.09 62.031,110.039 C67.668,110.09 72.922,113.594 75.117,118.793 C76.18,121.695 75.953,123.004 76.758,129.734 C77.965,135.184 80.645,140.238 84.508,144.254 C92.445,152.223 105.016,154.707 115.398,150.391 C125.793,146.125 132.906,135.453 132.895,124.211 C132.949,118.574 136.453,113.32 141.648,111.125 C146.875,109.035 153.066,110.223 157.094,114.188 C158.988,116.254 160.293,118.746 160.961,121.438 C161.223,122.957 161.266,130.148 163.41,135.059 C167.676,145.453 178.348,152.57 189.59,152.559 C200.832,152.57 211.504,145.457 215.766,135.059 C217.914,130.148 217.957,122.957 218.219,121.438 C218.891,118.746 220.188,116.254 222.086,114.188 C226.109,110.223 232.305,109.035 237.527,111.125 C242.723,113.32 246.227,118.574 246.281,124.211 C246.27,135.449 253.383,146.125 263.777,150.391 C274.16,154.707 286.734,152.223 294.672,144.254 C298.531,140.238 301.211,135.184 302.422,129.734 C303.223,123.004 303,121.695 304.059,118.793 C306.258,113.594 311.512,110.09 317.148,110.039 C322.781,110.09 328.039,113.594 330.234,118.793 C331.301,121.695 331.07,123.004 331.875,129.73 C333.086,135.184 335.766,140.238 339.625,144.254 C347.559,152.223 360.133,154.707 370.516,150.391 C380.91,146.125 388.023,135.453 388.016,124.211 L402.188,124.211 C402.266,141.059 391.535,157.148 375.945,163.48 C360.402,170.023 341.453,166.25 329.602,154.277 C323.781,148.305 319.723,140.695 317.973,132.484 C316.629,120.543 317.125,125.117 317.141,124.219 C317.016,124.219 317.18,124.332 317.148,124.211 C317.117,124.332 317.277,124.219 317.152,124.219 C317.172,125.117 317.668,120.543 316.324,132.488 C314.574,140.699 310.516,148.305 304.691,154.277 C292.844,166.25 273.891,170.023 258.348,163.48 C242.758,157.148 232.027,141.055 232.109,124.211 C232.141,124.238 232.051,124.219 232.109,124.211 C232.172,124.32 232.25,124.258 232.125,124.191 C232.398,120.496 232.09,133.574 228.859,140.488 C222.523,156.082 206.434,166.809 189.59,166.73 C172.742,166.809 156.648,156.082 150.316,140.488 C147.09,133.57 146.781,120.496 147.055,124.191 C146.93,124.258 147.008,124.32 147.07,124.211 C147.129,124.219 147.039,124.238 147.07,124.211 C147.148,141.059 136.422,157.148 120.828,163.48 C105.289,170.02 86.336,166.25 74.484,154.277 C68.664,148.305 64.605,140.695 62.852,132.484 C61.512,120.543 62.008,125.117 62.027,124.219 C61.898,124.219 62.062,124.332 62.031,124.211 C62,124.332 62.164,124.219 62.035,124.219 C62.055,125.117 62.551,120.543 61.207,132.484 C59.457,140.695 55.395,148.305 49.578,154.277 C37.727,166.25 18.773,170.023 3.234,163.48 C-12.359,157.148 -23.086,141.055 -23.008,124.211 C-22.977,124.238 -23.066,124.219 -23.008,124.211 C-22.949,124.32 -22.867,124.258 -22.996,124.191 C-22.719,120.496 -23.027,133.57 -26.258,140.488 C-32.59,156.082 -48.684,166.809 -65.527,166.73 C-82.375,166.809 -98.465,156.082 -104.801,140.488 C-108.027,133.57 -108.336,120.496 -108.062,124.191 C-108.188,124.258 -108.109,124.32 -108.047,124.211 C-107.988,124.219 -108.078,124.238 -108.047,124.211" id="Fill-94" fill="#2A3890" mask="url(#mask-2)"></path>
        </g>
    </g>
</svg>