<?xml version="1.0" encoding="UTF-8"?>
<svg width="207px" height="179px" viewBox="0 0 207 179" version="1.1" xmlns="http://www.w3.org/2000/svg" xmlns:xlink="http://www.w3.org/1999/xlink">
    <!-- Generator: Sketch 52.2 (67145) - http://www.bohemiancoding.com/sketch -->
    <title>Untitled 2</title>
    <desc>Created with Sketch.</desc>
    <g id="Page-1" stroke="none" stroke-width="1" fill="none" fill-rule="evenodd">
        <g id="Group-196">
            <polygon id="Fill-174" fill="#BDB5AA" points="52.02 0.816 0.676 89.75 52.02 178.68 75.914 178.68 85.305 166.078 91.676 163.871 185.879 86.109 160.57 64.613 171.547 47.957 94.719 0.816"></polygon>
            <polygon id="Fill-175" fill="#686360" points="52.02 0.816 0.676 89.75 49.168 173.746 66.574 167.547 79.559 150.129 87.633 147.328 166.816 81.965 144.84 63.305 154.668 48.391 82.457 4.082 75.48 0.816"></polygon>
            <polygon id="Fill-176" fill="#686360" points="28.449 114.129 48.934 173.336 52.02 178.684 154.707 178.684 198.309 103.16 182.863 81.852 160.973 68.754 151.504 64.07 150.074 63.555 104.902 28.672"></polygon>
            <polygon id="Fill-177" fill="#686360" points="52.02 0.816 46.102 11.062 59.684 55.488 59.508 91.91 130.332 139.367 192.949 112.445 206.051 89.75 154.707 0.816"></polygon>
            <polygon id="Fill-178" fill="#959287" points="0.676 89.746 41.965 161.266 57.777 155.637 70.801 138.164 80.578 134.773 144.738 81.812 126.102 65.984 134.781 52.816 75.727 16.582 49.898 4.492"></polygon>
            <polygon id="Fill-179" fill="#959287" points="44.57 117.371 65.043 176.555 68 178.273 68.109 178.684 154.707 178.684 190.551 116.602 173.094 92.523 154.18 81.207 145.926 77.125 143.16 76.121 106.672 47.945"></polygon>
            <polygon id="Fill-180" fill="#959287" points="57.793 0.816 73.867 53.406 73.719 84.371 131.82 123.301 185.711 100.129 199.855 79.012 154.707 0.816"></polygon>
            <polygon id="Fill-181" fill="#BDB5AA" points="0.676 89.746 34.758 148.785 48.98 143.723 62.039 126.203 73.523 122.219 122.66 81.66 107.363 68.668 114.891 57.238 68.996 29.078 42.785 16.809"></polygon>
            <polygon id="Fill-182" fill="#BDB5AA" points="60.688 120.609 76.719 166.949 80.152 168.945 82.793 178.684 154.707 178.684 182.789 130.047 163.324 103.195 147.391 93.66 140.348 90.176 136.25 88.688 108.445 67.223"></polygon>
            <polygon id="Fill-183" fill="#BDB5AA" points="72.613 0.816 87.008 47.914 88.062 49.18 87.926 76.832 133.301 107.238 176.266 88.762 191.957 65.336 154.707 0.816"></polygon>
            <polygon id="Fill-184" fill="#F2F0EB" points="87.434 0.816 99.734 41.055 102.258 44.102 102.137 69.293 134.785 91.172 166.824 77.395 184.062 51.656 173.066 32.613 172.422 31.676 172.453 31.551 154.707 0.816"></polygon>
            <polygon id="Fill-185" fill="#F2F0EB" points="33.145 33.508 0.676 89.75 27.555 136.305 40.18 131.809 53.281 114.238 66.465 109.668 100.586 81.508 88.621 71.344 95 61.664 62.266 41.574 37.824 30.137"></polygon>
            <polygon id="Fill-186" fill="#686360" points="25.238 56.668 20.914 80.859 10.898 79.207 4.258 95.953 20.352 123.824 31.383 119.898 44.52 102.277 59.414 97.109 78.508 81.348 69.879 74.027 75.109 66.09 55.531 54.074 39.352 46.504"></polygon>
            <path d="M38.18,64.816 L32.945,94.09 L35.758,90.312 L52.359,84.555 L56.426,81.195 L51.141,76.707 L55.219,70.516 L48.801,66.574 L40.883,62.871 L38.18,64.816 Z M17.809,100.238 L21.258,108.457 L22.586,107.984 L30.871,96.867 L19.863,95.055 L17.809,100.238 Z" id="Fill-187" fill="#8D8A83"></path>
            <polygon id="Fill-188" fill="#F2F0EB" points="76.805 123.852 88.391 157.34 92.309 159.621 95.691 172.094 123.301 178.68 124.074 178.68 136.188 174.699 152.754 170.137 173.406 141.25 153.551 113.863 140.598 106.113 134.773 103.23 129.336 101.258 110.219 86.496"></polygon>
            <polygon id="Fill-189" fill="#686360" points="112.461 34.203 116.504 39.082 116.457 39.152 116.344 61.754 136.27 75.105 157.375 66.027 167.957 50.234 157.211 34.543 160.625 19.812 137.156 7.402 104.043 6.664"></polygon>
            <polygon id="Fill-190" fill="#8D8A83" points="125.184 27.348 134.16 38.191 130.609 43.492 130.555 54.215 137.754 59.039 147.93 54.66 150.84 50.324 145.176 42.062 141.418 38.004 143.074 32.75 144.352 27.242 133.492 21.5 123.328 21.273"></polygon>
            <polygon id="Fill-191" fill="#686360" points="92.926 127.094 100.066 147.734 104.469 150.297 107.168 160.262 123.133 164.07 132.09 161.125 144.148 157.805 155.945 141.309 143.785 124.535 133.805 118.566 129.195 116.285 122.422 113.824 111.992 105.777"></polygon>
            <polygon id="Fill-192" fill="#8D8A83" points="109.039 130.332 111.738 138.129 115.898 140.543 117.535 144.332 118.648 148.434 122.52 149.352 127.988 147.551 135.543 145.477 138.477 141.367 134.016 135.207 127.016 131.02 123.617 129.34 115.512 126.395 113.766 125.047"></polygon>
        </g>
    </g>
</svg>