<?xml version="1.0" encoding="UTF-8"?>
<svg width="205px" height="177px" viewBox="0 0 205 177" version="1.1" xmlns="http://www.w3.org/2000/svg" xmlns:xlink="http://www.w3.org/1999/xlink">
    <!-- Generator: Sketch 52.2 (67145) - http://www.bohemiancoding.com/sketch -->
    <title>Untitled 2</title>
    <desc>Created with Sketch.</desc>
    <defs>
        <polyline id="path-1" points="51.27403 0.189 153.2436 0.189 204.2269 88.4969 153.2436 176.8049 51.27403 176.8049 0.29167 88.4969"></polyline>
    </defs>
    <g id="Page-1" stroke="none" stroke-width="1" fill="none" fill-rule="evenodd">
        <g id="Group-132">
            <mask id="mask-2" fill="white">
                <use xlink:href="#path-1"></use>
            </mask>
            <g id="Clip-101"></g>
            <path d="M83.7683,174.419 C83.7683,189.6411 71.42888,201.9806 56.21068,201.9806 C40.98763,201.9806 28.64721,189.6411 28.64721,174.419 C28.64721,159.2018 40.98763,146.8624 56.21068,146.8624 C71.42888,146.8624 83.7683,159.2018 83.7683,174.419" id="Fill-100" fill="#006032" mask="url(#mask-2)"></path>
            <path d="M188.0197,130.7924 C188.0197,138.403 181.85,144.5727 174.2414,144.5727 C166.6308,144.5727 160.4611,138.403 160.4611,130.7924 C160.4611,123.1838 166.6308,117.0141 174.2414,117.0141 C181.85,117.0141 188.0197,123.1838 188.0197,130.7924" id="Fill-102" fill="#004B23" mask="url(#mask-2)"></path>
            <path d="M156.3219,170.7637 C156.3219,185.9848 143.9834,198.3242 128.7633,198.3242 C113.5421,198.3242 101.2017,185.9848 101.2017,170.7637 C101.2017,155.5445 113.5421,143.2051 128.7633,143.2051 C143.9834,143.2051 156.3219,155.5445 156.3219,170.7637" id="Fill-103" fill="#004B23" mask="url(#mask-2)"></path>
            <path d="M115.5322,87.745 C115.5322,95.3556 109.3625,101.5253 101.7538,101.5253 C94.1433,101.5253 87.9736,95.3556 87.9736,87.745 C87.9736,80.1354 94.1433,73.9657 101.7538,73.9657 C109.3625,73.9657 115.5322,80.1354 115.5322,87.745" id="Fill-104" fill="#004B23" mask="url(#mask-2)"></path>
            <path d="M101.2845,95.7307 C101.2845,133.7815 70.43682,164.6282 32.38696,164.6282 C-5.66388,164.6282 -36.51054,133.7815 -36.51054,95.7307 C-36.51054,57.6789 -5.66388,26.8332 32.38696,26.8332 C70.43682,26.8332 101.2845,57.6789 101.2845,95.7307" id="Fill-105" fill="#073A1E" mask="url(#mask-2)"></path>
            <path d="M241.1995,92.646 C241.1995,115.4777 222.6913,133.9849 199.8606,133.9849 C177.0289,133.9849 158.5207,115.4777 158.5207,92.646 C158.5207,69.8163 177.0289,51.3071 199.8606,51.3071 C222.6913,51.3071 241.1995,69.8163 241.1995,92.646" id="Fill-106" fill="#073A1E" mask="url(#mask-2)"></path>
            <path d="M227.4194,92.646 C227.4194,107.8671 215.0809,120.2066 199.8608,120.2066 C184.6397,120.2066 172.3012,107.8671 172.3012,92.646 C172.3012,77.4268 184.6397,65.0874 199.8608,65.0874 C215.0809,65.0874 227.4194,77.4268 227.4194,92.646" id="Fill-107" fill="#004B23" mask="url(#mask-2)"></path>
            <path d="M213.6393,92.646 C213.6393,100.2566 207.4696,106.4263 199.861,106.4263 C192.2504,106.4263 186.0807,100.2566 186.0807,92.646 C186.0807,85.0374 192.2504,78.8677 199.861,78.8677 C207.4696,78.8677 213.6393,85.0374 213.6393,92.646" id="Fill-108" fill="#006032" mask="url(#mask-2)"></path>
            <path d="M196.9046,42.267 C196.9046,72.7092 172.2286,97.3842 141.7883,97.3842 C111.3451,97.3842 86.6701,72.7092 86.6701,42.267 C86.6701,11.8238 111.3451,-12.8522 141.7883,-12.8522 C172.2286,-12.8522 196.9046,11.8238 196.9046,42.267" id="Fill-109" fill="#073A1E" mask="url(#mask-2)"></path>
            <path d="M87.5044,95.7316 C87.5044,126.1729 62.8284,150.8489 32.38715,150.8489 C1.94493,150.8489 -22.732014,126.1729 -22.732014,95.7316 C-22.732014,65.2884 1.94493,40.6125 32.38715,40.6125 C62.8284,40.6125 87.5044,65.2884 87.5044,95.7316" id="Fill-110" fill="#004B23" mask="url(#mask-2)"></path>
            <path d="M132.1815,138.6765 C132.1815,161.5082 113.6733,180.0154 90.8436,180.0154 C68.0119,180.0154 49.50176,161.5082 49.50176,138.6765 C49.50176,115.8468 68.0119,97.3377 90.8436,97.3377 C113.6733,97.3377 132.1815,115.8468 132.1815,138.6765" id="Fill-111" fill="#073A1E" mask="url(#mask-2)"></path>
            <path d="M180.3122,96.1931 C186.0561,118.2897 172.7999,140.8579 150.7032,146.6028 C128.6075,152.3467 106.0383,139.0894 100.2935,116.9937 C94.5496,94.8971 107.8078,72.3279 129.9025,66.584 C152.0001,60.8401 174.5683,74.0964 180.3122,96.1931" id="Fill-112" fill="#006032" mask="url(#mask-2)"></path>
            <path d="M118.4014,138.6765 C118.4014,153.8977 106.0629,166.2371 90.8438,166.2371 C75.62168,166.2371 63.28224,153.8977 63.28224,138.6765 C63.28224,123.4574 75.62168,111.1179 90.8438,111.1179 C106.0629,111.1179 118.4014,123.4574 118.4014,138.6765" id="Fill-113" fill="#004B23" mask="url(#mask-2)"></path>
            <path d="M183.1263,42.2652 C183.1263,65.0978 164.6181,83.605 141.7874,83.605 C118.9558,83.605 100.4485,65.0978 100.4485,42.2652 C100.4485,19.4354 118.9558,0.9263 141.7874,0.9263 C164.6181,0.9263 183.1263,19.4354 183.1263,42.2652" id="Fill-114" fill="#004B23" mask="url(#mask-2)"></path>
            <path d="M166.9764,99.6604 C170.8051,114.3905 161.9676,129.4366 147.2355,133.2653 C132.5063,137.0948 117.4592,128.2573 113.6296,113.5272 C109.801,98.7951 118.6385,83.75 133.3706,79.9204 C148.0998,76.0918 163.1469,84.9293 166.9764,99.6604" id="Fill-115" fill="#008142" mask="url(#mask-2)"></path>
            <path d="M153.6387,103.1268 C155.553,110.4924 151.1362,118.0145 143.7707,119.9288 C136.4041,121.8441 128.8811,117.4263 126.9668,110.0607 C125.0534,102.6952 129.4702,95.1712 136.8358,93.2578 C144.2014,91.3425 151.7244,95.7613 153.6387,103.1268" id="Fill-116" fill="#009547" mask="url(#mask-2)"></path>
            <path d="M169.3462,42.2652 C169.3462,57.4863 157.0078,69.8267 141.7876,69.8267 C126.5665,69.8267 114.228,57.4863 114.228,42.2652 C114.228,27.047 126.5665,14.7065 141.7876,14.7065 C157.0078,14.7065 169.3462,27.047 169.3462,42.2652" id="Fill-117" fill="#006032" mask="url(#mask-2)"></path>
            <path d="M155.5661,42.2652 C155.5661,49.8767 149.3963,56.0454 141.7877,56.0454 C134.1772,56.0454 128.0074,49.8767 128.0074,42.2652 C128.0074,34.6565 134.1772,28.4878 141.7877,28.4878 C149.3963,28.4878 155.5661,34.6565 155.5661,42.2652" id="Fill-118" fill="#008142" mask="url(#mask-2)"></path>
            <path d="M104.6212,138.6765 C104.6212,146.2871 98.4515,152.4568 90.8439,152.4568 C83.2323,152.4568 77.06261,146.2871 77.06261,138.6765 C77.06261,131.0679 83.2323,124.8982 90.8439,124.8982 C98.4515,124.8982 104.6212,131.0679 104.6212,138.6765" id="Fill-119" fill="#006032" mask="url(#mask-2)"></path>
            <path d="M73.72614,95.7298 C73.72614,118.5615 55.21794,137.0697 32.38628,137.0697 C9.55558,137.0697 -8.95261,118.5615 -8.95261,95.7298 C-8.95261,72.9001 9.55558,54.3909 32.38628,54.3909 C55.21794,54.3909 73.72614,72.9001 73.72614,95.7298" id="Fill-120" fill="#006032" mask="url(#mask-2)"></path>
            <path d="M73.72614,95.7298 C73.72614,118.5615 55.21794,137.0697 32.38628,137.0697 C9.55558,137.0697 -8.95261,118.5615 -8.95261,95.7298 C-8.95261,72.9001 9.55558,54.3909 32.38628,54.3909 C55.21794,54.3909 73.72614,72.9001 73.72614,95.7298" id="Fill-121" fill="#006032" mask="url(#mask-2)"></path>
            <path d="M59.94606,95.7298 C59.94606,110.9509 47.60758,123.2903 32.38647,123.2903 C17.16536,123.2903 4.82786,110.9509 4.82786,95.7298 C4.82786,80.5106 17.16536,68.1712 32.38647,68.1712 C47.60758,68.1712 59.94606,80.5106 59.94606,95.7298" id="Fill-122" fill="#008142" mask="url(#mask-2)"></path>
            <path d="M46.16597,95.7298 C46.16597,103.3403 39.99625,109.5101 32.38667,109.5101 C24.77611,109.5101 18.60639,103.3403 18.60639,95.7298 C18.60639,88.1212 24.77611,81.9515 32.38667,81.9515 C39.99625,81.9515 46.16597,88.1212 46.16597,95.7298" id="Fill-123" fill="#009547" mask="url(#mask-2)"></path>
            <path d="M104.5947,-12.9578 C110.3386,9.1388 97.0823,31.708 74.98468,37.4528 C52.88996,43.1967 30.31982,29.9385 24.57593,7.8438 C18.83204,-14.2538 32.08926,-36.823 54.18593,-42.5669 C76.28163,-48.3108 98.8498,-35.0545 104.5947,-12.9578" id="Fill-124" fill="#006032" mask="url(#mask-2)"></path>
            <path d="M105.7606,55.0379 C105.7606,70.259 93.4211,82.5985 78.2039,82.5985 C62.98182,82.5985 50.64238,70.259 50.64238,55.0379 C50.64238,39.8188 62.98182,27.4803 78.2039,27.4803 C93.4211,27.4803 105.7606,39.8188 105.7606,55.0379" id="Fill-125" fill="#008142" mask="url(#mask-2)"></path>
            <path d="M91.98,55.0379 C91.98,62.6485 85.8113,68.8182 78.20361,68.8182 C70.59208,68.8182 64.42236,62.6485 64.42236,55.0379 C64.42236,47.4293 70.59208,41.2596 78.20361,41.2596 C85.8113,41.2596 91.98,47.4293 91.98,55.0379" id="Fill-126" fill="#009547" mask="url(#mask-2)"></path>
            <path d="M91.2584,-9.4905 C95.087,5.2396 86.2505,20.2867 71.51842,24.1143 C56.78828,27.9449 41.74119,19.1074 37.91258,4.3763 C34.083,-10.3558 42.9205,-25.4009 57.65258,-29.2305 C72.38272,-33.0591 87.4298,-24.2216 91.2584,-9.4905" id="Fill-127" fill="#008142" mask="url(#mask-2)"></path>
            <path d="M77.92167,-6.0242 C79.836,1.3414 75.41819,8.8645 68.05264,10.7788 C60.68611,12.6931 53.16403,8.2763 51.24875,0.9097 C49.33542,-6.4558 53.75319,-13.9798 61.11875,-15.8932 C68.48431,-17.8085 76.00639,-13.3897 77.92167,-6.0242" id="Fill-128" fill="#009547" mask="url(#mask-2)"></path>
            <path d="M142.5418,170.7637 C142.5418,178.3742 136.3721,184.5439 128.7634,184.5439 C121.1529,184.5439 114.9832,178.3742 114.9832,170.7637 C114.9832,163.1551 121.1529,156.9853 128.7634,156.9853 C136.3721,156.9853 142.5418,163.1551 142.5418,170.7637" id="Fill-129" fill="#006032" mask="url(#mask-2)"></path>
            <path d="M189.2084,162.1912 C189.2084,177.4123 176.87,189.7517 161.6518,189.7517 C146.4287,189.7517 134.0903,177.4123 134.0903,162.1912 C134.0903,146.972 146.4287,134.6336 161.6518,134.6336 C176.87,134.6336 189.2084,146.972 189.2084,162.1912" id="Fill-130" fill="#008142" mask="url(#mask-2)"></path>
            <path d="M175.4283,162.1912 C175.4283,169.8017 169.2585,175.9715 161.6519,175.9715 C154.0394,175.9715 147.8697,169.8017 147.8697,162.1912 C147.8697,154.5826 154.0394,148.4129 161.6519,148.4129 C169.2585,148.4129 175.4283,154.5826 175.4283,162.1912" id="Fill-131" fill="#009547" mask="url(#mask-2)"></path>
        </g>
    </g>
</svg>