<?xml version="1.0" encoding="UTF-8"?>
<svg width="210px" height="182px" viewBox="0 0 210 182" version="1.1" xmlns="http://www.w3.org/2000/svg" xmlns:xlink="http://www.w3.org/1999/xlink">
    <!-- Generator: Sketch 52.2 (67145) - http://www.bohemiancoding.com/sketch -->
    <title>Untitled 2</title>
    <desc>Created with Sketch.</desc>
    <defs>
        <polyline id="path-1" points="52.504 0.234 157.387 0.234 209.828 91.062 157.387 181.895 52.504 181.895 0.066 91.062"></polyline>
    </defs>
    <g id="Page-1" stroke="none" stroke-width="1" fill="none" fill-rule="evenodd">
        <g id="Group-150">
            <mask id="mask-2" fill="white">
                <use xlink:href="#path-1"></use>
            </mask>
            <g id="Clip-138"></g>
            <path d="M259.906,39.465 C259.906,77.828 193.664,108.929 111.957,108.929 C30.242,108.929 -36,77.828 -36,39.465 C-36,1.101 30.242,-30 111.957,-30 C193.664,-30 259.906,1.101 259.906,39.465" id="Fill-146" fill="#A4DEF4" mask="url(#mask-2)"></path>
            <path d="M159.266,89.176 C161.781,120.617 121.008,149.531 68.199,153.758 C15.391,157.984 -29.461,135.922 -31.977,104.48 C-34.492,73.039 6.277,44.125 59.086,39.898 C111.898,35.672 156.746,57.734 159.266,89.176" id="Fill-137" fill="#F6F5BC" mask="url(#mask-2)"></path>
            <path d="M166.328,88.609 L180.457,87.477 C181.863,104.215 175.031,119.848 166.473,130.535 C157.805,141.461 147.496,149.176 136.922,155.266 C115.637,167.281 92.781,173.004 69.895,174.949 C46.992,176.668 23.516,174.652 0.594,166.176 C-10.816,161.844 -22.219,155.871 -32.516,146.461 C-42.664,137.273 -51.898,122.922 -53.168,106.176 C-54.574,89.438 -47.746,73.805 -39.188,63.117 C-30.516,52.191 -20.211,44.477 -9.633,38.391 C11.648,26.375 34.508,20.652 57.391,18.707 C80.297,16.988 103.766,19.004 126.691,27.48 C138.102,31.809 149.504,37.785 159.801,47.191 C169.953,56.383 179.18,70.73 180.457,87.477 L166.328,88.609 C165.371,76.191 158.535,65.211 150.172,57.594 C141.723,49.863 131.848,44.578 121.707,40.75 C101.32,33.184 79.656,31.227 58.52,32.832 C37.398,34.605 16.324,39.988 -2.602,50.695 C-12,56.09 -20.914,62.879 -28.027,71.855 C-35.07,80.703 -40.07,92.633 -39.039,105.047 C-38.086,117.461 -31.246,128.445 -22.887,136.062 C-14.441,143.793 -4.562,149.078 5.578,152.906 C25.969,160.469 47.633,162.426 68.766,160.82 C89.887,159.047 110.965,153.668 129.887,142.957 C139.289,137.562 148.203,130.777 155.309,121.801 C162.355,112.949 167.359,101.02 166.328,88.609" id="Fill-139" fill="#82A43E" mask="url(#mask-2)"></path>
            <path d="M152.199,89.738 L166.328,88.609 C167.359,101.02 162.355,112.949 155.309,121.801 C148.203,130.777 139.289,137.562 129.887,142.957 C110.965,153.668 89.887,159.047 68.766,160.82 C47.633,162.426 25.969,160.469 5.578,152.906 C-4.562,149.078 -14.441,143.793 -22.887,136.062 C-31.246,128.445 -38.086,117.461 -39.039,105.047 C-40.07,92.633 -35.07,80.703 -28.027,71.855 C-20.914,62.879 -12,56.09 -2.602,50.699 C16.324,39.984 37.398,34.605 58.52,32.832 C79.656,31.227 101.32,33.184 121.707,40.75 C131.844,44.578 141.723,49.863 150.172,57.594 C158.535,65.211 165.371,76.191 166.328,88.609 L152.199,89.738 C150.973,73.164 134.207,60.359 116.723,54.016 C98.871,47.363 79.016,45.465 59.652,46.961 C40.297,48.562 20.996,53.598 4.43,63.004 C-11.82,72.047 -26.344,87.355 -24.91,103.914 C-23.691,120.488 -6.918,133.293 10.562,139.637 C28.414,146.289 48.27,148.188 67.637,146.691 C86.992,145.09 106.293,140.059 122.855,130.652 C139.109,121.605 153.629,106.297 152.199,89.738" id="Fill-140" fill="#9FBC2E" mask="url(#mask-2)"></path>
            <path d="M138.07,90.871 L152.199,89.738 C153.629,106.297 139.109,121.605 122.855,130.652 C106.293,140.059 86.992,145.09 67.633,146.691 C48.27,148.188 28.414,146.289 10.562,139.637 C-6.918,133.293 -23.691,120.488 -24.91,103.914 C-26.34,87.355 -11.824,72.047 4.426,63.004 C20.996,53.598 40.297,48.562 59.652,46.961 C79.016,45.465 98.871,47.363 116.723,54.016 C134.207,60.359 150.973,73.164 152.199,89.738 L138.07,90.871 C138.309,83.656 127.305,72.711 111.742,67.281 C96.426,61.543 78.379,59.703 60.785,61.09 C43.188,62.52 25.668,67.207 11.461,75.309 C-3.047,83.141 -12.168,95.699 -10.785,102.781 C-11.027,110 -0.023,120.945 15.547,126.371 C30.863,132.109 48.906,133.953 66.504,132.562 C84.098,131.137 101.621,126.445 115.828,118.344 C130.336,110.512 139.457,97.957 138.07,90.871" id="Fill-141" fill="#E3DF5A" mask="url(#mask-2)"></path>
            <path d="M277.855,118.535 C284.352,155.586 245.203,193.41 190.41,203.016 C135.617,212.621 85.93,190.375 79.434,153.324 C72.938,116.277 112.094,78.453 166.887,68.848 C221.676,59.242 271.363,81.488 277.855,118.535" id="Fill-142" fill="#F6F5BC" mask="url(#mask-2)"></path>
            <path d="M284.836,117.312 L298.797,114.863 C301.672,130.961 298.152,147.594 291.27,160.637 C284.438,173.879 274.898,184.383 264.516,192.898 C243.57,209.828 219.066,219.465 194.078,223.957 C169.059,228.234 142.734,227.504 117.281,218.711 C104.621,214.238 92.078,207.605 81.148,197.477 C70.234,187.555 61.27,173.113 58.492,157 C55.617,140.898 59.137,124.266 66.023,111.227 C72.855,97.984 82.398,87.477 92.777,78.965 C113.723,62.035 138.227,52.398 163.211,47.906 C188.234,43.629 214.555,44.355 240.012,53.152 C252.668,57.625 265.211,64.258 276.145,74.383 C287.059,84.305 296.023,98.75 298.797,114.863 L284.836,117.312 C280.164,90.965 257.238,73.969 235.305,66.52 C212.73,58.699 188.617,57.918 165.66,61.867 C142.727,65.965 120.316,74.902 101.75,89.938 C83.66,104.406 67.887,128.188 72.453,154.551 C77.133,180.895 100.055,197.891 121.984,205.34 C144.559,213.164 168.676,213.941 191.633,209.996 C214.566,205.898 236.977,196.961 255.539,181.926 C273.633,167.457 289.402,143.676 284.836,117.312" id="Fill-143" fill="#82A43E" mask="url(#mask-2)"></path>
            <path d="M270.879,119.758 L284.836,117.312 C289.402,143.676 273.633,167.457 255.539,181.926 C236.977,196.961 214.566,205.898 191.633,209.996 C168.676,213.941 144.559,213.164 121.984,205.344 C100.055,197.891 77.133,180.895 72.453,154.551 C67.887,128.188 83.66,104.406 101.75,89.938 C120.316,74.902 142.727,65.965 165.66,61.867 C188.617,57.918 212.73,58.699 235.305,66.52 C257.238,73.973 280.164,90.969 284.836,117.312 L270.879,119.758 C267.695,100.719 250.031,86.496 230.602,79.891 C210.91,73.039 189.004,72.211 168.105,75.828 C147.227,79.535 126.906,87.77 110.723,100.906 C94.695,113.734 82.926,133.117 86.414,152.102 C89.598,171.141 107.258,185.363 126.691,191.973 C146.383,198.82 168.289,199.652 189.188,196.035 C210.066,192.328 230.387,184.094 246.566,170.953 C262.594,158.129 274.363,138.746 270.879,119.758" id="Fill-144" fill="#9FBC2E" mask="url(#mask-2)"></path>
            <path d="M256.914,122.207 L270.879,119.758 C274.363,138.746 262.594,158.129 246.566,170.953 C230.387,184.094 210.066,192.328 189.188,196.035 C168.289,199.652 146.383,198.82 126.691,191.973 C107.258,185.363 89.598,171.141 86.414,152.102 C82.926,133.117 94.695,113.734 110.723,100.906 C126.906,87.77 147.227,79.535 168.105,75.828 C189.004,72.211 210.91,73.039 230.602,79.891 C250.031,86.496 267.695,100.719 270.879,119.758 L256.914,122.207 C255.23,110.473 242.828,99.023 225.895,93.258 C209.09,87.383 189.391,86.5 170.555,89.785 C151.727,93.102 133.5,100.637 119.695,111.879 C105.73,123.062 97.969,138.047 100.371,149.652 C102.062,161.391 114.465,172.836 131.395,178.602 C148.203,184.48 167.902,185.363 186.738,182.074 C205.566,178.762 223.793,171.227 237.598,159.984 C251.559,148.801 259.324,133.816 256.914,122.207" id="Fill-145" fill="#E3DF5A" mask="url(#mask-2)"></path>
            <path d="M211.859,181.895 C211.859,220.258 145.617,251.359 63.91,251.359 C-17.805,251.359 -84.047,220.258 -84.047,181.895 C-84.047,143.531 -17.805,112.43 63.91,112.43 C145.617,112.43 211.859,143.531 211.859,181.895" id="Fill-146" fill="#F6F5BC" mask="url(#mask-2)"></path>
            <path d="M218.945,181.895 L233.121,181.895 C233.129,194.09 228.746,205.605 222.902,214.332 C216.992,223.027 209.973,229.773 202.766,235.23 C188.27,246.098 172.953,252.93 157.57,258.254 C126.73,268.617 95.234,272.52 63.906,272.617 C32.578,272.52 1.082,268.617 -29.754,258.254 C-45.141,252.934 -60.453,246.098 -74.953,235.234 C-82.16,229.777 -89.176,223.027 -95.086,214.332 C-100.93,205.609 -105.312,194.094 -105.305,181.895 C-105.316,169.699 -100.934,158.18 -95.09,149.457 C-89.176,140.762 -82.16,134.012 -74.953,128.555 C-60.457,117.691 -45.141,110.855 -29.758,105.535 C1.082,95.168 32.578,91.27 63.906,91.172 C95.234,91.27 126.73,95.168 157.57,105.535 C172.953,110.855 188.266,117.691 202.766,128.555 C209.969,134.012 216.988,140.762 222.902,149.453 C228.746,158.18 233.129,169.695 233.121,181.895 L218.945,181.895 C218.855,163.281 206.422,149.094 194.18,139.832 C181.504,130.312 167.371,123.902 152.996,118.949 C124.121,109.23 93.922,105.422 63.906,105.344 C33.891,105.422 3.688,109.23 -25.184,118.949 C-39.559,123.902 -53.691,130.312 -66.367,139.832 C-78.609,149.098 -91.043,163.281 -91.133,181.895 C-91.043,200.508 -78.605,214.691 -66.367,223.953 C-53.691,233.477 -39.559,239.887 -25.184,244.84 C3.691,254.559 33.891,258.367 63.906,258.445 C93.922,258.367 124.125,254.559 152.996,244.84 C167.371,239.887 181.504,233.477 194.18,223.953 C206.422,214.691 218.855,200.504 218.945,181.895" id="Fill-147" fill="#82A43E" mask="url(#mask-2)"></path>
            <path d="M204.773,181.895 L218.945,181.895 C218.855,200.504 206.422,214.691 194.18,223.953 C181.5,233.477 167.371,239.887 152.996,244.84 C124.125,254.559 93.922,258.367 63.906,258.445 C33.891,258.367 3.691,254.559 -25.18,244.84 C-39.555,239.887 -53.691,233.477 -66.371,223.953 C-78.605,214.691 -91.043,200.508 -91.133,181.895 C-91.043,163.281 -78.609,149.098 -66.371,139.832 C-53.691,130.312 -39.559,123.902 -25.184,118.949 C3.691,109.23 33.891,105.422 63.906,105.344 C93.918,105.422 124.121,109.23 152.996,118.949 C167.371,123.902 181.5,130.312 194.18,139.832 C206.418,149.094 218.855,163.281 218.945,181.895 L204.773,181.895 C204.918,170.207 196.336,159.184 185.598,151.109 C174.734,142.934 161.789,136.945 148.422,132.363 C121.512,123.289 92.605,119.574 63.906,119.516 C35.207,119.574 6.297,123.289 -20.609,132.363 C-33.977,136.949 -46.922,142.934 -57.785,151.113 C-68.523,159.184 -77.105,170.207 -76.957,181.895 C-77.102,193.582 -68.523,204.605 -57.785,212.676 C-46.922,220.855 -33.977,226.84 -20.609,231.426 C6.301,240.5 35.207,244.215 63.906,244.27 C92.609,244.215 121.512,240.5 148.422,231.426 C161.789,226.84 174.738,220.855 185.598,212.676 C196.336,204.605 204.918,193.578 204.773,181.895" id="Fill-148" fill="#9FBC2E" mask="url(#mask-2)"></path>
            <path d="M190.598,181.895 L204.773,181.895 C204.914,193.578 196.336,204.605 185.598,212.676 C174.738,220.855 161.789,226.84 148.422,231.426 C121.512,240.5 92.609,244.215 63.906,244.27 C35.207,244.215 6.301,240.5 -20.605,231.426 C-33.977,226.84 -46.922,220.855 -57.785,212.676 C-68.523,204.605 -77.102,193.582 -76.957,181.895 C-77.105,170.207 -68.523,159.184 -57.785,151.113 C-46.922,142.934 -33.977,136.949 -20.609,132.363 C6.297,123.289 35.203,119.574 63.906,119.516 C92.605,119.574 121.512,123.289 148.422,132.363 C161.789,136.945 174.734,142.934 185.598,151.109 C196.336,159.184 204.914,170.207 204.773,181.895 L190.598,181.895 C165.141,117.656 -37.332,117.656 -62.785,181.895 C-37.328,246.133 165.145,246.133 190.598,181.895" id="Fill-149" fill="#E3DF5A" mask="url(#mask-2)"></path>
        </g>
    </g>
</svg>